<?xml version="1.0" encoding="UTF-8"?>
<svg id="Layer_1" data-name="Layer 1" xmlns="http://www.w3.org/2000/svg" version="1.1" viewBox="0 0 186.33 186.33">
  <defs>
    <style>
      .cls-1 {
        fill: #234280;
        stroke-width: 0px;
      }
    </style>
  </defs>
  <path class="cls-1" d="M45.89,74.47c-.75,5.79,2.5,10.99,7.24,11.6s9.2-3.59,9.95-9.38c.75-5.79-2.5-10.99-7.24-11.6-4.75-.61-9.2,3.59-9.95,9.38Z"/>
  <path class="cls-1" d="M42.71,59.12c.56.86,1.26,1.67,2.13,2.22.67.43,1.48.64,2.27.67.07,0,.13,0,.2,0,2.07-.01,3.78-1.31,4.67-3.15.7-1.45.94-3.08,1.22-4.67,1.14-6.5,3.19-14.01,6.17-19.02.28.12.59.2.92.2,1.26,0,2.27-1.02,2.27-2.27s-1.02-2.27-2.27-2.27-2.27,1.02-2.27,2.27c0,.45.14.87.37,1.23-1.29,1.3-3.13,4.25-4.82,8.43-1.32,3.26-2.02,5.26-3.44,9.57-.46,1.42-1.8,3.98-3.74,2.97-.95-.5-1.61-1.61-1.93-2.61-.83-2.63-.57-5.5.23-8.14.45-1.48,1.58-4.09,2.71-5.86.93-1.45,1.85-2.58.72-1.65-2.09,1.65-7.42,9.29-7.34,15.09.03,2.21.48,4.47,1.57,6.4.11.2.24.4.36.6Z"/>
  <path class="cls-1" d="M61.7,49.45c-1.67,2.27-3.28,5.15-2.81,8.07.5,3.13,3.54,4.68,6.77,4.43,1.58-.12,5.01-1.77,6.44-2.41,5.57-2.45,8.25-3.87,13.81-6.34,8.45-3.75,17.17-6.98,26.15-9.18.34,2.35,2.35,4.17,4.8,4.17,2.69,0,4.87-2.18,4.87-4.87s-2.18-4.87-4.87-4.87-4.7,2.04-4.85,4.6c-.8.07-1.51.14-1.89.17-2.08.18-4.14.47-6.19.85-9.21,1.69-18.15,4.56-26.99,7.61-1.83.63-3.66,1.4-5.52,1.94-1.56.46-3.45.65-4.47-.91-.78-1.18-.58-2.84-.01-4.06,1.88-4.04,5.19-7.25,8.77-9.91,2.55-1.89,5.25-3.55,7.9-5.29.62.75,1.54,1.24,2.58,1.24,1.85,0,3.36-1.5,3.36-3.36s-1.5-3.36-3.36-3.36-3.36,1.5-3.36,3.36c0,.4.08.78.21,1.14-7.97,4.58-15.92,9.6-21.35,16.98Z"/>
  <path class="cls-1" d="M42.78,87.08c.49-2.1-.04-4.21-1.81-5.53-2.1-1.57-5.12-1.12-7.33-.03-5.5,2.72-9.33,8.33-11.28,14-.29.85-.58,1.78-.61,2.69-.02.46.23,1.43.62.46.94-2.34,1.98-4.43,3.44-6.5,1.23-1.73,2.7-3.37,4.53-4.47,1.67-1,4.48-1.01,4.69,1.16.24,2.48-1.27,4.84-2.64,8.35-1.68,4.31-2.82,8.2-3.38,12.54-1.35.21-2.39,1.37-2.39,2.78,0,1.56,1.27,2.83,2.83,2.83s2.83-1.27,2.83-2.83c0-1.04-.57-1.94-1.4-2.43,1.45-8.16,5.84-13.55,9.83-18.74.96-1.25,1.73-2.75,2.08-4.29Z"/>
  <path class="cls-1" d="M24.6,75.33c1.9.65,6.18,1.09,7.85.98,2.43-.16,5.15-.62,7.04-2.29,2.55-2.26,2.3-6.33.5-8.97-1.73-2.54-4.72-3.97-7.56-4.91-4.27-1.41-4.29-.04-3.07.91,1.81,1.4,3.86,2.88,4.92,4.98.5.99.73,2.16.42,3.23-.72,2.45-3.71,3.67-5.91,4.37-1.66.53-3.78.42-4.39.66-.66.25-.43.83.21,1.04Z"/>
  <circle class="cls-1" cx="97.07" cy="26.92" r="2.25"/>
  <path class="cls-1" d="M132.16,46c1.84,0,3.33-1.49,3.33-3.33s-1.49-3.33-3.33-3.33-3.33,1.49-3.33,3.33,1.49,3.33,3.33,3.33Z"/>
  <path class="cls-1" d="M135.57,60.92c-2.18,0-3.94,1.76-3.94,3.94s1.76,3.94,3.94,3.94,3.94-1.76,3.94-3.94-1.76-3.94-3.94-3.94Z"/>
  <path class="cls-1" d="M152.64,68.38c0-1.41-1.14-2.56-2.56-2.56s-2.56,1.14-2.56,2.56,1.15,2.56,2.56,2.56,2.56-1.14,2.56-2.56Z"/>
  <path class="cls-1" d="M144.63,43.56c-.98,0-1.78.79-1.78,1.78s.79,1.78,1.78,1.78,1.78-.79,1.78-1.78-.79-1.78-1.78-1.78Z"/>
  <path class="cls-1" d="M108.82,26.92c.88,0,1.59-.71,1.59-1.59s-.71-1.59-1.59-1.59-1.59.71-1.59,1.59.71,1.59,1.59,1.59Z"/>
  <path class="cls-1" d="M66.96,29.02c.8,0,1.45-.65,1.45-1.45s-.65-1.45-1.45-1.45-1.45.65-1.45,1.45.65,1.45,1.45,1.45Z"/>
  <path class="cls-1" d="M153.73,122.69c-.92,0-1.66.75-1.66,1.66s.75,1.66,1.66,1.66,1.66-.75,1.66-1.66-.75-1.66-1.66-1.66Z"/>
  <path class="cls-1" d="M133.9,147.16c-.83,0-1.5.67-1.5,1.5s.67,1.5,1.5,1.5,1.5-.67,1.5-1.5-.67-1.5-1.5-1.5Z"/>
  <path class="cls-1" d="M105.38,161.04c-.77,0-1.4.63-1.4,1.4s.63,1.4,1.4,1.4,1.4-.63,1.4-1.4-.63-1.4-1.4-1.4Z"/>
  <path class="cls-1" d="M129.39,85.73c0-3.13-2.54-5.67-5.67-5.67-2.14,0-4,1.18-4.96,2.93-.78-.21-1.39-.35-1.61-.42-8.69-2.42-17.57-3.81-26.4-5.59-1.78-.36-3.55-.78-5.27-1.4-1.03-.38-2.03-.9-2.76-1.72-.73-.82-1.14-1.97-.88-3.04.72-2.93,5.32-3.7,7.76-4.35,6.77-1.79,13.8-2.78,20.76-3.7.3,2.5,2.41,4.44,4.99,4.44,2.79,0,5.05-2.26,5.05-5.05s-2.26-5.05-5.05-5.05c-2.3,0-4.21,1.54-4.82,3.64-8.17.07-16.27.98-24.69,2.52-4.93.9-12.36,2.41-14.94,5.91-1.16,1.57-1.72,3.67-1.06,5.51.9,2.47,3.54,3.77,5.89,4.49,1.45.45,2.95.74,4.45.95,7.71,1.1,15.53,1.41,23.22,2.73,7.62,1.31,11.55,1.96,14.67,2.53,0,.12-.02.23-.02.35,0,3.13,2.54,5.67,5.67,5.67s5.67-2.54,5.67-5.67Z"/>
  <path class="cls-1" d="M145.37,91.64c0-1.91-1.55-3.45-3.45-3.45s-3.45,1.55-3.45,3.45,1.55,3.45,3.45,3.45,3.45-1.55,3.45-3.45Z"/>
  <path class="cls-1" d="M154.99,96.84c0-1.3-1.05-2.35-2.35-2.35s-2.35,1.05-2.35,2.35,1.05,2.35,2.35,2.35,2.35-1.05,2.35-2.35Z"/>
  <path class="cls-1" d="M160.89,100.51c-.84,0-1.52.68-1.52,1.52s.68,1.52,1.52,1.52,1.52-.68,1.52-1.52-.68-1.52-1.52-1.52Z"/>
  <path class="cls-1" d="M161.45,74c0-.84-.68-1.52-1.52-1.52s-1.52.68-1.52,1.52.68,1.52,1.52,1.52,1.52-.68,1.52-1.52Z"/>
  <circle class="cls-1" cx="114.99" cy="105.63" r="4.69" transform="translate(-26.6 171.45) rotate(-67.5)"/>
  <path class="cls-1" d="M134.56,113.7c0-2.2-1.78-3.99-3.99-3.99s-3.99,1.78-3.99,3.99,1.78,3.99,3.99,3.99,3.99-1.78,3.99-3.99Z"/>
  <path class="cls-1" d="M143.68,117.48c-1.44,0-2.6,1.17-2.6,2.6s1.17,2.6,2.6,2.6,2.6-1.17,2.6-2.6-1.17-2.6-2.6-2.6Z"/>
  <path class="cls-1" d="M99.56,123.87c-1.71,0-3.24.74-4.3,1.91-3.12-2.64-4.85-4.95-7.86-8.16-5.06-5.38-9.55-10.39-12.67-17.06-.89-1.89-2.56-6.55.52-7.72,1.79-.68,3.99.08,5.76.49,2.88.67,6.56,2.13,9.76,3.68.09,2.79,2.37,5.04,5.18,5.04s5.2-2.33,5.2-5.2-2.33-5.2-5.2-5.2c-1.87,0-3.49.99-4.41,2.47-2.4-1.52-4.92-2.82-7.48-4.1-3.71-1.86-7.54-3.58-11.6-4.55-.94-.23-3.82-.91-6.08,1.21-1.28,1.2-1.76,2.97-1.43,5.26.24,1.66.89,3.6,1.98,5.95,6.2,13.22,17.85,22.76,27.32,29.42-.33.73-.51,1.53-.51,2.38,0,3.21,2.6,5.82,5.82,5.82s5.82-2.6,5.82-5.82-2.6-5.82-5.82-5.82Z"/>
  <path class="cls-1" d="M72.45,129.68c-.7,0-1.37.15-1.98.41-3.08-6.53-5.89-13.17-7.87-20.14-1.16-4.11-1.99-8.32-3.68-12.26-1.2-2.79-3.57-6.71-7.19-5.65-1.31.38-2.47,1.35-3.29,2.42-3.26,4.23-4.01,10.31-4.08,15.49-.04,2.85.07,5.71.49,8.53-1.81.41-3.16,2.02-3.16,3.95,0,2.24,1.82,4.06,4.06,4.06s4.06-1.82,4.06-4.06c0-1.78-1.16-3.28-2.76-3.82-.08-3.48-.05-6.94.39-10.41.28-2.25.84-6.06,3.48-6.76.36-.1.74-.11,1.11-.04,2.41.47,3.61,3.88,4.47,5.87,1.99,4.61,3.87,9.16,6.27,13.58,1.92,3.53,3.98,6.98,6.07,10.42-.84.89-1.36,2.08-1.36,3.4,0,2.75,2.23,4.98,4.98,4.98s4.98-2.23,4.98-4.98-2.23-4.98-4.98-4.98Z"/>
  <path class="cls-1" d="M112.65,135.02c-2.2,0-3.99,1.78-3.99,3.99s1.78,3.99,3.99,3.99,3.99-1.78,3.99-3.99-1.78-3.99-3.99-3.99Z"/>
  <path class="cls-1" d="M83.05,144.96c-2.2,0-3.99,1.78-3.99,3.98s1.78,3.99,3.99,3.99,3.99-1.78,3.99-3.99-1.78-3.98-3.99-3.98Z"/>
  <path class="cls-1" d="M124.14,142.01c-1.47,0-2.67,1.19-2.67,2.67s1.19,2.67,2.67,2.67,2.67-1.19,2.67-2.67-1.19-2.67-2.67-2.67Z"/>
  <path class="cls-1" d="M63.31,153.78c-.84,0-1.51.68-1.51,1.51s.68,1.51,1.51,1.51,1.51-.68,1.51-1.51-.68-1.51-1.51-1.51Z"/>
  <path class="cls-1" d="M94.09,155.29c-1.27,0-2.29,1.03-2.29,2.29s1.03,2.29,2.29,2.29,2.29-1.03,2.29-2.29-1.03-2.29-2.29-2.29Z"/>
  <path class="cls-1" d="M30.86,121.03c-.78,0-1.41.63-1.41,1.41s.63,1.41,1.41,1.41,1.41-.63,1.41-1.41-.63-1.41-1.41-1.41Z"/>
  <path class="cls-1" d="M49.22,133.84c-1.83.1-3.22,1.66-3.12,3.49.1,1.83,1.66,3.22,3.49,3.12,1.83-.1,3.22-1.66,3.12-3.49-.1-1.83-1.66-3.22-3.49-3.12Z"/>
  <path class="cls-1" d="M55.11,145.62c-1.32,0-2.39,1.07-2.39,2.39s1.07,2.39,2.39,2.39,2.39-1.07,2.39-2.39-1.07-2.39-2.39-2.39Z"/>
</svg>