<?xml version="1.0" encoding="UTF-8"?>
<svg id="Layer_1" data-name="Layer 1" xmlns="http://www.w3.org/2000/svg" version="1.1" viewBox="0 0 555.35 183.86">
  <defs>
    <style>
      .cls-1 {
        fill: #234280;
        stroke-width: 0px;
      }
    </style>
  </defs>
  <path class="cls-1" d="M368.49,52.65c1.04.54,2.25.81,3.63.81s2.56-.26,3.6-.77,1.85-1.24,2.42-2.19.85-2.04.85-3.29c0-.07-.03-.14-.1-.19-.06-.05-.14-.08-.23-.08l-2.53-.11c-.22,0-.33.1-.33.3,0,1.08-.33,1.95-1,2.6-.67.65-1.56.98-2.68.98s-2.02-.33-2.7-.99c-.68-.66-1.02-1.52-1.02-2.59v-7.01c0-1.08.34-1.95,1.02-2.61.68-.66,1.58-.99,2.7-.99s2.01.33,2.68.99c.67.66,1,1.53,1,2.61,0,.2.11.3.33.3l2.53-.14c.09,0,.17-.03.23-.1s.1-.14.1-.23c0-1.23-.28-2.31-.85-3.25-.57-.94-1.38-1.66-2.42-2.17-1.04-.51-2.25-.77-3.6-.77s-2.58.27-3.63.8c-1.04.53-1.85,1.28-2.42,2.25-.57.97-.85,2.1-.85,3.38v6.79c0,1.28.28,2.41.85,3.38.57.97,1.38,1.73,2.42,2.27Z"/>
  <path class="cls-1" d="M385.11,52.53c1,.64,2.21.96,3.64.96,1.15,0,2.2-.22,3.15-.66.94-.44,1.7-1.06,2.27-1.87.11-.17.08-.31-.08-.44l-1.71-1.4c-.06-.05-.12-.08-.19-.08-.11,0-.2.05-.28.16-.73,1.03-1.72,1.54-2.97,1.54-1.71-.02-2.78-.69-3.22-2.01-.11-.22-.19-.63-.25-1.24,0-.09.04-.14.14-.14h8.61c.22,0,.33-.11.33-.33l.03-.85c0-.57-.04-1.08-.11-1.54-.46-3.78-2.49-5.67-6.11-5.67-1.43,0-2.65.37-3.67,1.11-1.02.74-1.71,1.76-2.08,3.04-.22.66-.33,1.52-.33,2.58,0,1.76.21,3.13.63,4.12.46,1.16,1.19,2.05,2.19,2.7ZM385.51,44.85c.04-.5.11-.9.22-1.21.18-.6.5-1.08.95-1.42.45-.34,1.01-.51,1.69-.51.73,0,1.34.18,1.83.55.49.37.81.88.98,1.54.07.24.13.59.17,1.04,0,.09-.05.14-.14.14h-5.58c-.11,0-.15-.05-.11-.14Z"/>
  <path class="cls-1" d="M398.38,53.24h2.53c.09,0,.17-.03.23-.1s.1-.14.1-.23v-8.39c0-.84.24-1.52.73-2.04.49-.51,1.12-.77,1.91-.77s1.42.26,1.9.78c.48.52.71,1.21.71,2.05v8.36c0,.09.03.17.1.23.06.06.14.1.23.1h2.53c.09,0,.17-.03.23-.1.06-.06.1-.14.1-.23v-9.02c0-1.52-.45-2.72-1.33-3.6-.89-.88-2.08-1.32-3.56-1.32s-2.66.5-3.41,1.49c-.02.05-.05.07-.08.05-.04-.02-.06-.05-.06-.11v-.88c0-.09-.03-.17-.1-.23-.06-.06-.14-.1-.23-.1h-2.53c-.09,0-.17.03-.23.1s-.1.14-.1.23v13.39c0,.09.03.17.1.23.06.06.14.1.23.1Z"/>
  <path class="cls-1" d="M412.98,41.77h1.57c.09,0,.14.05.14.14v7.84c.02,1.38.39,2.31,1.1,2.8s1.8.74,3.25.74l1.43-.03c.22-.04.33-.16.33-.36v-2.06c0-.09-.03-.17-.1-.23s-.14-.1-.23-.1h-.83c-.66,0-1.14-.16-1.44-.47-.3-.31-.45-.82-.45-1.51v-6.63c0-.09.05-.14.14-.14h2.8c.09,0,.17-.03.23-.1.06-.06.1-.14.1-.23v-1.92c0-.09-.03-.17-.1-.23-.06-.06-.14-.1-.23-.1h-2.8c-.09,0-.14-.04-.14-.14v-3.22c0-.09-.03-.17-.1-.23-.06-.06-.14-.1-.23-.1h-2.39c-.09,0-.17.03-.23.1-.06.06-.1.14-.1.23v3.22c0,.09-.05.14-.14.14h-1.57c-.09,0-.17.03-.23.1s-.1.14-.1.23v1.92c0,.09.03.17.1.23s.14.1.23.1Z"/>
  <path class="cls-1" d="M430.83,42.32c.37,0,.69.05.96.14.24.09.37.03.38-.19l.47-2.47c.04-.2-.02-.34-.17-.41-.44-.24-.95-.36-1.54-.36-1.38,0-2.45.6-3.22,1.79-.04.05-.07.08-.1.07-.03,0-.04-.05-.04-.12v-1.24c0-.09-.03-.17-.1-.23-.06-.06-.14-.1-.23-.1h-2.53c-.09,0-.17.03-.23.1s-.1.14-.1.23v13.39c0,.09.03.17.1.23.06.06.14.1.23.1h2.53c.09,0,.17-.03.23-.1s.1-.14.1-.23v-7.78c0-.81.26-1.46.77-1.97.51-.5,1.16-.77,1.92-.81.13-.02.31-.03.55-.03Z"/>
  <path class="cls-1" d="M437.5,52.53c1,.64,2.21.96,3.64.96,1.15,0,2.2-.22,3.15-.66.94-.44,1.7-1.06,2.27-1.87.11-.17.08-.31-.08-.44l-1.71-1.4c-.06-.05-.12-.08-.19-.08-.11,0-.2.05-.28.16-.73,1.03-1.72,1.54-2.97,1.54-1.71-.02-2.78-.69-3.22-2.01-.11-.22-.19-.63-.25-1.24,0-.09.04-.14.14-.14h8.61c.22,0,.33-.11.33-.33l.03-.85c0-.57-.04-1.08-.11-1.54-.46-3.78-2.49-5.67-6.11-5.67-1.43,0-2.65.37-3.67,1.11-1.02.74-1.71,1.76-2.08,3.04-.22.66-.33,1.52-.33,2.58,0,1.76.21,3.13.63,4.12.46,1.16,1.19,2.05,2.19,2.7ZM437.9,44.85c.04-.5.11-.9.22-1.21.18-.6.5-1.08.95-1.42.45-.34,1.01-.51,1.69-.51.73,0,1.34.18,1.83.55.49.37.81.88.98,1.54.07.24.13.59.17,1.04,0,.09-.05.14-.14.14h-5.58c-.11,0-.15-.05-.11-.14Z"/>
  <path class="cls-1" d="M455.91,41.99h1.7c.09,0,.14.05.14.14v10.78c0,.09.03.17.1.23.06.06.14.1.23.1h2.53c.09,0,.17-.03.23-.1.06-.06.1-.14.1-.23v-10.78c0-.09.04-.14.14-.14h2.72c.09,0,.17-.03.23-.1.06-.06.1-.14.1-.23v-2.17c0-.09-.03-.17-.1-.23-.06-.06-.14-.1-.23-.1h-2.72c-.09,0-.14-.05-.14-.14v-.27c0-.83.15-1.39.45-1.71.3-.31.85-.47,1.64-.47h.71c.09,0,.17-.03.23-.1s.1-.14.1-.23v-1.92c0-.09-.03-.17-.1-.23-.06-.06-.14-.1-.23-.1h-.96c-1.3-.02-2.31.11-3.03.38-.71.28-1.23.74-1.54,1.39-.31.65-.47,1.57-.47,2.76v.5c0,.09-.05.14-.14.14h-1.7c-.09,0-.17.03-.23.1s-.1.14-.1.23v2.17c0,.09.03.17.1.23s.14.1.23.1Z"/>
  <path class="cls-1" d="M468.63,52.36c1.04.73,2.28,1.1,3.73,1.1s2.63-.37,3.66-1.11c1.03-.74,1.75-1.76,2.17-3.07.31-.93.47-1.98.47-3.13s-.17-2.25-.5-3.14c-.42-1.26-1.14-2.25-2.16-2.97s-2.22-1.07-3.62-1.07c-1.47,0-2.72.36-3.77,1.07s-1.78,1.71-2.2,3c-.29.92-.44,1.96-.44,3.13,0,1.1.16,2.14.47,3.13.42,1.3,1.15,2.32,2.19,3.05ZM469.47,43.89c.22-.7.58-1.23,1.07-1.61.5-.38,1.08-.56,1.76-.56.71,0,1.32.19,1.82.56.5.38.84.91,1.04,1.61.18.55.28,1.32.28,2.31,0,.93-.09,1.71-.28,2.31-.22.7-.57,1.24-1.06,1.62-.49.38-1.07.58-1.75.58-.72,0-1.33-.19-1.83-.58-.5-.38-.86-.93-1.06-1.62-.18-.64-.28-1.41-.28-2.31s.09-1.67.28-2.31Z"/>
  <path class="cls-1" d="M485.09,53.24c.09,0,.17-.03.23-.1s.1-.14.1-.23v-7.78c0-.81.26-1.46.77-1.97.51-.5,1.16-.77,1.92-.81.13-.02.31-.03.55-.03.37,0,.69.05.96.14.24.09.37.03.38-.19l.47-2.47c.04-.2-.02-.34-.17-.41-.44-.24-.95-.36-1.54-.36-1.38,0-2.45.6-3.22,1.79-.04.05-.07.08-.1.07-.03,0-.04-.05-.04-.12v-1.24c0-.09-.03-.17-.1-.23-.06-.06-.14-.1-.23-.1h-2.53c-.09,0-.17.03-.23.1s-.1.14-.1.23v13.39c0,.09.03.17.1.23.06.06.14.1.23.1h2.53Z"/>
  <path class="cls-1" d="M378.09,66.1l-4.48,6.79s-.05.05-.08.05-.07-.02-.11-.05l-4.48-6.79c-.09-.15-.22-.22-.39-.22h-2.53c-.09,0-.17.03-.23.1s-.1.14-.1.23v18.59c0,.09.03.17.1.23.06.06.14.1.23.1h2.53c.09,0,.17-.03.23-.1s.1-.14.1-.23v-13.09c0-.05.02-.09.07-.11.04-.02.08,0,.1.06l3.46,5.25c.09.15.22.22.39.22h1.26c.17,0,.29-.07.38-.22l3.44-5.28c.02-.05.05-.07.1-.05.04.02.07.05.07.11v13.12c0,.09.03.17.1.23.06.06.14.1.23.1h2.53c.09,0,.17-.03.23-.1.06-.06.1-.14.1-.23v-18.59c0-.09-.03-.17-.1-.23s-.14-.1-.23-.1h-2.53c-.17,0-.29.07-.38.22Z"/>
  <path class="cls-1" d="M396.76,84.8v-9.27c0-.9-.24-1.7-.71-2.41-.48-.71-1.16-1.26-2.04-1.66-.88-.4-1.9-.6-3.05-.6-1.59,0-2.92.36-3.97,1.07-1.05.71-1.65,1.63-1.8,2.75-.02.07,0,.13.07.18.06.05.14.08.23.1l2.67.33c.2.04.33-.06.38-.28.11-.44.38-.78.81-1.03.43-.25.99-.37,1.69-.37.84,0,1.48.2,1.9.59.42.39.63.95.63,1.66v.66c0,.09-.05.14-.14.14h-2.94c-1.81,0-3.22.4-4.22,1.2-1,.8-1.5,1.91-1.5,3.34s.44,2.41,1.33,3.11c.89.7,2.02,1.04,3.4,1.04,1.71,0,3.01-.5,3.9-1.48.04-.04.07-.05.11-.04.04,0,.05.04.05.1v.88c0,.09.03.17.1.23.06.06.14.1.23.1h2.53c.09,0,.17-.03.23-.1.06-.06.1-.14.1-.23ZM393.57,80.29c0,.73-.32,1.34-.96,1.81-.64.48-1.41.72-2.31.72-.68,0-1.23-.16-1.66-.48-.43-.32-.65-.77-.65-1.36,0-.68.28-1.2.84-1.57.56-.37,1.32-.55,2.3-.55h2.31c.09,0,.14.05.14.14v1.29Z"/>
  <path class="cls-1" d="M402.68,71.92c-1.04.71-1.75,1.66-2.13,2.87-.29.84-.44,1.92-.44,3.25s.15,2.47.44,3.3c.4,1.23,1.12,2.21,2.15,2.93,1.03.72,2.25,1.09,3.66,1.09s2.68-.34,3.74-1.03c1.06-.69,1.77-1.62,2.12-2.79.04-.13.08-.34.14-.63.02-.11,0-.2-.07-.26s-.14-.11-.23-.12l-2.47-.38c-.2-.04-.33.05-.39.27,0,.04,0,.06-.03.08,0,.05,0,.1-.03.14-.15.6-.47,1.09-.98,1.44-.5.36-1.1.54-1.8.54s-1.31-.19-1.79-.56c-.48-.38-.81-.88-.99-1.53-.17-.62-.25-1.44-.25-2.45s.09-1.86.28-2.45c.17-.62.49-1.11.98-1.47.49-.36,1.08-.54,1.77-.54s1.26.17,1.76.5.83.75.99,1.26c.04.11.07.24.11.38.02.06.03.13.03.22.05.18.17.27.33.27h.05l2.47-.36c.2-.04.3-.15.3-.33v-.05c-.04-.29-.1-.59-.19-.88-.35-1.08-1.05-1.98-2.12-2.7-1.06-.71-2.31-1.07-3.74-1.07s-2.64.35-3.67,1.06Z"/>
  <path class="cls-1" d="M422.39,70.86c-1.52,0-2.66.5-3.41,1.49-.02.05-.05.07-.08.05-.04-.02-.06-.05-.06-.11v-6.08c0-.09-.03-.17-.1-.23-.06-.06-.14-.1-.23-.1h-2.53c-.09,0-.17.03-.23.1s-.1.14-.1.23v18.59c0,.09.03.17.1.23.06.06.14.1.23.1h2.53c.09,0,.17-.03.23-.1s.1-.14.1-.23v-8.39c0-.84.24-1.52.73-2.04.49-.51,1.12-.77,1.91-.77s1.42.26,1.9.78c.48.52.71,1.21.71,2.05v8.36c0,.09.03.17.1.23.06.06.14.1.23.1h2.53c.09,0,.17-.03.23-.1.06-.06.1-.14.1-.23v-9.02c0-1.52-.45-2.72-1.33-3.6-.89-.88-2.08-1.32-3.56-1.32Z"/>
  <path class="cls-1" d="M431.02,67.2c0,.57.18,1.04.55,1.4s.83.55,1.4.55,1.04-.18,1.4-.55.55-.83.55-1.4-.18-1.04-.55-1.4-.83-.55-1.4-.55-1.04.18-1.4.55-.55.83-.55,1.4Z"/>
  <path class="cls-1" d="M434.42,85.03c.06-.06.1-.14.1-.23v-13.42c0-.09-.03-.17-.1-.23-.06-.06-.14-.1-.23-.1h-2.53c-.09,0-.17.03-.23.1s-.1.14-.1.23v13.42c0,.09.03.17.1.23.06.06.14.1.23.1h2.53c.09,0,.17-.03.23-.1Z"/>
  <path class="cls-1" d="M442.05,72.34c-.02.05-.05.07-.08.05-.04-.02-.06-.05-.06-.11v-.88c0-.09-.03-.17-.1-.23-.06-.06-.14-.1-.23-.1h-2.53c-.09,0-.17.03-.23.1s-.1.14-.1.23v13.39c0,.09.03.17.1.23.06.06.14.1.23.1h2.53c.09,0,.17-.03.23-.1s.1-.14.1-.23v-8.39c0-.84.24-1.52.73-2.04.49-.51,1.12-.77,1.91-.77s1.42.26,1.9.78c.48.52.71,1.21.71,2.05v8.36c0,.09.03.17.1.23.06.06.14.1.23.1h2.53c.09,0,.17-.03.23-.1.06-.06.1-.14.1-.23v-9.02c0-1.52-.45-2.72-1.33-3.6-.89-.88-2.08-1.32-3.56-1.32s-2.66.5-3.41,1.49Z"/>
  <path class="cls-1" d="M459.87,70.86c-1.43,0-2.65.37-3.67,1.11-1.02.74-1.71,1.76-2.08,3.04-.22.66-.33,1.52-.33,2.58,0,1.76.21,3.13.63,4.12.46,1.16,1.19,2.05,2.19,2.7s2.21.96,3.64.96c1.15,0,2.2-.22,3.15-.66.94-.44,1.7-1.06,2.27-1.87.11-.17.08-.31-.08-.44l-1.71-1.4c-.06-.05-.12-.08-.19-.08-.11,0-.2.05-.28.16-.73,1.03-1.72,1.54-2.97,1.54-1.71-.02-2.78-.69-3.22-2.01-.11-.22-.19-.63-.25-1.24,0-.09.04-.14.14-.14h8.61c.22,0,.33-.11.33-.33l.03-.85c0-.57-.04-1.08-.11-1.54-.46-3.78-2.49-5.67-6.11-5.67ZM462.7,76.88h-5.58c-.11,0-.15-.05-.11-.14.04-.5.11-.9.22-1.21.18-.6.5-1.08.95-1.42.45-.34,1.01-.51,1.69-.51.73,0,1.34.18,1.83.55.49.37.81.88.98,1.54.07.24.13.59.17,1.04,0,.09-.05.14-.14.14Z"/>
  <path class="cls-1" d="M368.54,97.77h-2.53c-.09,0-.17.03-.23.1s-.1.14-.1.23v18.59c0,.09.03.17.1.23.06.06.14.1.23.1h2.53c.09,0,.17-.03.23-.1s.1-.14.1-.23v-18.59c0-.09-.03-.17-.1-.23-.06-.06-.14-.1-.23-.1Z"/>
  <path class="cls-1" d="M384.67,116.92c.06-.06.1-.14.1-.23v-9.02c0-1.52-.45-2.72-1.33-3.6-.89-.88-2.08-1.32-3.56-1.32s-2.66.5-3.41,1.49c-.02.05-.05.07-.08.05-.04-.02-.06-.05-.06-.11v-.88c0-.09-.03-.17-.1-.23-.06-.06-.14-.1-.23-.1h-2.53c-.09,0-.17.03-.23.1s-.1.14-.1.23v13.39c0,.09.03.17.1.23.06.06.14.1.23.1h2.53c.09,0,.17-.03.23-.1s.1-.14.1-.23v-8.39c0-.84.24-1.52.73-2.04.49-.51,1.12-.77,1.91-.77s1.42.26,1.9.78c.48.52.71,1.21.71,2.05v8.36c0,.09.03.17.1.23.06.06.14.1.23.1h2.53c.09,0,.17-.03.23-.1Z"/>
  <path class="cls-1" d="M395.77,102.97h-2.8c-.09,0-.14-.04-.14-.14v-3.22c0-.09-.03-.17-.1-.23-.06-.06-.14-.1-.23-.1h-2.39c-.09,0-.17.03-.23.1-.06.06-.1.14-.1.23v3.22c0,.09-.05.14-.14.14h-1.57c-.09,0-.17.03-.23.1s-.1.14-.1.23v1.92c0,.09.03.17.1.23s.14.1.23.1h1.57c.09,0,.14.05.14.14v7.84c.02,1.38.39,2.31,1.1,2.8s1.8.74,3.25.74l1.43-.03c.22-.04.33-.16.33-.36v-2.06c0-.09-.03-.17-.1-.23s-.14-.1-.23-.1h-.83c-.66,0-1.14-.16-1.44-.47-.3-.31-.45-.82-.45-1.51v-6.63c0-.09.05-.14.14-.14h2.8c.09,0,.17-.03.23-.1.06-.06.1-.14.1-.23v-1.92c0-.09-.03-.17-.1-.23-.06-.06-.14-.1-.23-.1Z"/>
  <path class="cls-1" d="M410.76,114.74c.11-.17.08-.31-.08-.44l-1.71-1.4c-.06-.05-.12-.08-.19-.08-.11,0-.2.05-.28.16-.73,1.03-1.72,1.54-2.97,1.54-1.71-.02-2.78-.69-3.22-2.01-.11-.22-.19-.63-.25-1.24,0-.09.04-.14.14-.14h8.61c.22,0,.33-.11.33-.33l.03-.85c0-.57-.04-1.08-.11-1.54-.46-3.78-2.49-5.67-6.11-5.67-1.43,0-2.65.37-3.67,1.11-1.02.74-1.71,1.76-2.08,3.04-.22.66-.33,1.52-.33,2.58,0,1.76.21,3.13.63,4.12.46,1.16,1.19,2.05,2.19,2.7s2.21.96,3.64.96c1.15,0,2.2-.22,3.15-.66.94-.44,1.7-1.06,2.27-1.87ZM402.1,108.63c.04-.5.11-.9.22-1.21.18-.6.5-1.08.95-1.42.45-.34,1.01-.51,1.69-.51.73,0,1.34.18,1.83.55.49.37.81.88.98,1.54.07.24.13.59.17,1.04,0,.09-.05.14-.14.14h-5.58c-.11,0-.15-.05-.11-.14Z"/>
  <path class="cls-1" d="M414.63,98.1v18.59c0,.09.03.17.1.23.06.06.14.1.23.1h2.53c.09,0,.17-.03.23-.1s.1-.14.1-.23v-18.59c0-.09-.03-.17-.1-.23-.06-.06-.14-.1-.23-.1h-2.53c-.09,0-.17.03-.23.1s-.1.14-.1.23Z"/>
  <path class="cls-1" d="M424.62,97.77h-2.53c-.09,0-.17.03-.23.1s-.1.14-.1.23v18.59c0,.09.03.17.1.23.06.06.14.1.23.1h2.53c.09,0,.17-.03.23-.1s.1-.14.1-.23v-18.59c0-.09-.03-.17-.1-.23-.06-.06-.14-.1-.23-.1Z"/>
  <path class="cls-1" d="M432.1,97.69c-.37-.37-.83-.55-1.4-.55s-1.04.18-1.4.55-.55.83-.55,1.4.18,1.04.55,1.4.83.55,1.4.55,1.04-.18,1.4-.55.55-.83.55-1.4-.18-1.04-.55-1.4Z"/>
  <path class="cls-1" d="M429.37,102.94c-.09,0-.17.03-.23.1s-.1.14-.1.23v13.42c0,.09.03.17.1.23.06.06.14.1.23.1h2.53c.09,0,.17-.03.23-.1s.1-.14.1-.23v-13.42c0-.09-.03-.17-.1-.23-.06-.06-.14-.1-.23-.1h-2.53Z"/>
  <path class="cls-1" d="M444.07,118.74c-.65.54-1.66.81-3.04.81-.42,0-.9-.03-1.43-.08-.26,0-.38.1-.38.3l-.08,2.25c0,.22.1.34.3.36.55.06,1.11.08,1.68.08,2.13,0,3.85-.49,5.16-1.47s1.97-2.62,1.97-4.91v-12.79c0-.09-.03-.17-.1-.23s-.14-.1-.23-.1h-2.53c-.09,0-.17.03-.23.1-.06.06-.1.14-.1.23v.66c0,.05-.02.09-.05.11-.04.02-.07,0-.11-.06-.81-.84-1.93-1.26-3.38-1.26-1.21,0-2.26.33-3.16,1s-1.53,1.56-1.9,2.68c-.29.81-.44,1.97-.44,3.49,0,1.36.12,2.47.36,3.33.39,1.25,1.07,2.17,2.06,2.78.99.61,2.08.91,3.27.91,1.38,0,2.44-.4,3.19-1.21.04-.04.07-.05.11-.04.04,0,.05.04.05.1v.22c0,1.28-.33,2.2-.98,2.74ZM445.01,111.45c-.03.32-.08.62-.15.89-.15.59-.44,1.06-.88,1.43-.44.37-1.02.55-1.73.55s-1.26-.19-1.75-.56c-.49-.38-.82-.86-1-1.44-.18-.46-.28-1.26-.28-2.39s.11-1.91.33-2.42c.2-.61.53-1.09.99-1.46.46-.37,1.02-.55,1.68-.55.7,0,1.27.18,1.72.55.45.37.75.85.89,1.46.09.29.15.59.18.89s.04.8.04,1.5-.01,1.23-.04,1.55Z"/>
  <path class="cls-1" d="M463.64,114.74c.11-.17.08-.31-.08-.44l-1.71-1.4c-.06-.05-.12-.08-.19-.08-.11,0-.2.05-.28.16-.73,1.03-1.72,1.54-2.97,1.54-1.71-.02-2.78-.69-3.22-2.01-.11-.22-.19-.63-.25-1.24,0-.09.04-.14.14-.14h8.61c.22,0,.33-.11.33-.33l.03-.85c0-.57-.04-1.08-.11-1.54-.46-3.78-2.49-5.67-6.11-5.67-1.43,0-2.65.37-3.67,1.11-1.02.74-1.71,1.76-2.08,3.04-.22.66-.33,1.52-.33,2.58,0,1.76.21,3.13.63,4.12.46,1.16,1.19,2.05,2.19,2.7s2.21.96,3.64.96c1.15,0,2.2-.22,3.15-.66.94-.44,1.7-1.06,2.27-1.87ZM454.98,108.63c.04-.5.11-.9.22-1.21.18-.6.5-1.08.95-1.42.45-.34,1.01-.51,1.69-.51.73,0,1.34.18,1.83.55.49.37.81.88.98,1.54.07.24.13.59.17,1.04,0,.09-.05.14-.14.14h-5.58c-.11,0-.15-.05-.11-.14Z"/>
  <path class="cls-1" d="M470.61,116.92c.06-.06.1-.14.1-.23v-8.39c0-.84.24-1.52.73-2.04.49-.51,1.12-.77,1.91-.77s1.42.26,1.9.78c.48.52.71,1.21.71,2.05v8.36c0,.09.03.17.1.23.06.06.14.1.23.1h2.53c.09,0,.17-.03.23-.1.06-.06.1-.14.1-.23v-9.02c0-1.52-.45-2.72-1.33-3.6-.89-.88-2.08-1.32-3.56-1.32s-2.66.5-3.41,1.49c-.02.05-.05.07-.08.05-.04-.02-.06-.05-.06-.11v-.88c0-.09-.03-.17-.1-.23-.06-.06-.14-.1-.23-.1h-2.53c-.09,0-.17.03-.23.1s-.1.14-.1.23v13.39c0,.09.03.17.1.23.06.06.14.1.23.1h2.53c.09,0,.17-.03.23-.1Z"/>
  <path class="cls-1" d="M485.11,116.15c1.03.72,2.25,1.09,3.66,1.09s2.68-.34,3.74-1.03c1.06-.69,1.77-1.62,2.12-2.79.04-.13.08-.34.14-.63.02-.11,0-.2-.07-.26s-.14-.11-.23-.12l-2.47-.38c-.2-.04-.33.05-.39.27,0,.04,0,.06-.03.08,0,.05,0,.1-.03.14-.15.6-.47,1.09-.98,1.44-.5.36-1.1.54-1.8.54s-1.31-.19-1.79-.56c-.48-.38-.81-.88-.99-1.53-.17-.62-.25-1.44-.25-2.45s.09-1.86.28-2.45c.17-.62.49-1.11.98-1.47.49-.36,1.08-.54,1.77-.54s1.26.17,1.76.5.83.75.99,1.26c.04.11.07.24.11.38.02.06.03.13.03.22.05.18.17.27.33.27h.05l2.47-.36c.2-.04.3-.15.3-.33v-.05c-.04-.29-.1-.59-.19-.88-.35-1.08-1.05-1.98-2.12-2.7-1.06-.71-2.31-1.07-3.74-1.07s-2.64.35-3.67,1.06c-1.04.71-1.75,1.66-2.13,2.87-.29.84-.44,1.92-.44,3.25s.15,2.47.44,3.3c.4,1.23,1.12,2.21,2.15,2.93Z"/>
  <path class="cls-1" d="M500.42,116.31c1,.64,2.21.96,3.64.96,1.15,0,2.2-.22,3.15-.66.94-.44,1.7-1.06,2.27-1.87.11-.17.08-.31-.08-.44l-1.71-1.4c-.06-.05-.12-.08-.19-.08-.11,0-.2.05-.28.16-.73,1.03-1.72,1.54-2.97,1.54-1.71-.02-2.78-.69-3.22-2.01-.11-.22-.19-.63-.25-1.24,0-.09.04-.14.14-.14h8.61c.22,0,.33-.11.33-.33l.03-.85c0-.57-.04-1.08-.11-1.54-.46-3.78-2.49-5.67-6.11-5.67-1.43,0-2.65.37-3.67,1.11-1.02.74-1.71,1.76-2.08,3.04-.22.66-.33,1.52-.33,2.58,0,1.76.21,3.13.63,4.12.46,1.16,1.19,2.05,2.19,2.7ZM500.82,108.63c.04-.5.11-.9.22-1.21.18-.6.5-1.08.95-1.42.45-.34,1.01-.51,1.69-.51.73,0,1.34.18,1.83.55.49.37.81.88.98,1.54.07.24.13.59.17,1.04,0,.09-.05.14-.14.14h-5.58c-.11,0-.15-.05-.11-.14Z"/>
  <path class="cls-1" d="M535.08,116.61c-.07-.07-.16-.17-.26-.28-.1-.11-.22-.25-.34-.41-.62-.7-1.27-1.43-1.93-2.2-.07-.07-.11-.15-.11-.22l.03-.06c.75-.84,1.51-1.85,2.28-3.02.15-.17.11-.31-.11-.44l-1.87-1.07c-.18-.13-.33-.09-.44.11-.7.99-1.26,1.72-1.71,2.2-.07.07-.14.07-.19,0-1.21-1.34-2.24-2.5-3.08-3.49-.07-.07-.06-.14.03-.19,1.12-.7,2.01-1.47,2.67-2.31.66-.84.99-1.82.99-2.94,0-.93-.23-1.76-.7-2.47-.47-.71-1.11-1.27-1.94-1.66-.83-.39-1.77-.59-2.83-.59s-1.94.2-2.74.59c-.8.39-1.42.94-1.86,1.62s-.66,1.45-.66,2.3c0,.7.16,1.37.47,2.01.31.64.95,1.55,1.92,2.72.09.06.08.12-.03.19-1.17.73-2.1,1.53-2.79,2.39-.69.86-1.03,1.92-1.03,3.16,0,1.54.54,2.71,1.64,3.51,1.09.8,2.48,1.2,4.17,1.2,2.02,0,3.87-.6,5.56-1.79.07-.05.14-.05.19,0l1.24,1.38c.11.13.25.19.41.19h2.83c.18,0,.28-.06.28-.19,0-.07-.03-.15-.08-.22ZM524.1,100.99c.39-.35.91-.52,1.55-.52s1.19.17,1.6.51c.4.34.6.79.6,1.36s-.21,1.06-.62,1.53c-.41.47-1.01.95-1.8,1.44-.07.05-.14.05-.19-.03-.71-.86-1.18-1.49-1.4-1.87-.22-.38-.33-.73-.33-1.04,0-.57.2-1.03.59-1.38ZM528.29,113.31c-1.27.83-2.47,1.24-3.6,1.24-.79,0-1.42-.19-1.88-.56-.47-.38-.7-.88-.7-1.5s.22-1.22.66-1.73c.44-.51,1.07-1.04,1.9-1.57.09-.04.16-.03.19.03.42.49.78.9,1.07,1.21l.63.71c.55.62.94,1.07,1.18,1.35.09.11.18.22.28.33.09.11.18.21.28.3.07.06.07.12,0,.19Z"/>
  <path class="cls-1" d="M376.16,130.35c-.99-.46-2.14-.69-3.44-.69h-6.71c-.09,0-.17.03-.23.1s-.1.14-.1.23v18.59c0,.09.03.17.1.23.06.06.14.1.23.1h6.71c1.3,0,2.45-.23,3.44-.69.99-.46,1.75-1.11,2.3-1.97s.81-1.85.81-2.98v-7.97c0-1.14-.27-2.13-.81-2.98s-1.31-1.51-2.3-1.97ZM376.08,142.78c-.02,1.03-.32,1.85-.89,2.46s-1.35.92-2.32.92h-3.85c-.09,0-.14-.05-.14-.14v-13.47c0-.09.05-.14.14-.14h3.82c.99,0,1.78.31,2.37.92.59.62.88,1.44.88,2.49v6.96Z"/>
  <path class="cls-1" d="M391.23,135.24c-.88-.4-1.9-.6-3.05-.6-1.59,0-2.92.36-3.97,1.07-1.05.71-1.65,1.63-1.8,2.75-.02.07,0,.13.07.18.06.05.14.08.23.1l2.67.33c.2.04.33-.06.38-.28.11-.44.38-.78.81-1.03.43-.25.99-.37,1.69-.37.84,0,1.48.2,1.9.59.42.39.63.95.63,1.66v.66c0,.09-.05.14-.14.14h-2.94c-1.81,0-3.22.4-4.22,1.2-1,.8-1.5,1.91-1.5,3.34s.44,2.41,1.33,3.11c.89.7,2.02,1.04,3.4,1.04,1.71,0,3.01-.5,3.9-1.48.04-.04.07-.05.11-.04.04,0,.05.04.05.1v.88c0,.09.03.17.1.23.06.06.14.1.23.1h2.53c.09,0,.17-.03.23-.1.06-.06.1-.14.1-.23v-9.27c0-.9-.24-1.7-.71-2.41-.48-.71-1.16-1.26-2.04-1.66ZM390.79,144.07c0,.73-.32,1.34-.96,1.81-.64.48-1.41.72-2.31.72-.68,0-1.23-.16-1.66-.48-.43-.32-.65-.77-.65-1.36,0-.68.28-1.2.84-1.57.56-.37,1.32-.55,2.3-.55h2.31c.09,0,.14.05.14.14v1.29Z"/>
  <path class="cls-1" d="M404.62,134.86h-2.8c-.09,0-.14-.04-.14-.14v-3.22c0-.09-.03-.17-.1-.23-.06-.06-.14-.1-.23-.1h-2.39c-.09,0-.17.03-.23.1-.06.06-.1.14-.1.23v3.22c0,.09-.05.14-.14.14h-1.57c-.09,0-.17.03-.23.1s-.1.14-.1.23v1.92c0,.09.03.17.1.23s.14.1.23.1h1.57c.09,0,.14.05.14.14v7.84c.02,1.38.39,2.31,1.1,2.8s1.8.74,3.25.74l1.43-.03c.22-.04.33-.16.33-.36v-2.06c0-.09-.03-.17-.1-.23s-.14-.1-.23-.1h-.83c-.66,0-1.14-.16-1.44-.47-.3-.31-.45-.82-.45-1.51v-6.63c0-.09.05-.14.14-.14h2.8c.09,0,.17-.03.23-.1.06-.06.1-.14.1-.23v-1.92c0-.09-.03-.17-.1-.23-.06-.06-.14-.1-.23-.1Z"/>
  <path class="cls-1" d="M416.75,135.24c-.88-.4-1.9-.6-3.05-.6-1.59,0-2.92.36-3.97,1.07-1.05.71-1.65,1.63-1.8,2.75-.02.07,0,.13.07.18.06.05.14.08.23.1l2.67.33c.2.04.33-.06.38-.28.11-.44.38-.78.81-1.03.43-.25.99-.37,1.69-.37.84,0,1.48.2,1.9.59.42.39.63.95.63,1.66v.66c0,.09-.05.14-.14.14h-2.94c-1.81,0-3.22.4-4.22,1.2-1,.8-1.5,1.91-1.5,3.34s.44,2.41,1.33,3.11c.89.7,2.02,1.04,3.4,1.04,1.71,0,3.01-.5,3.9-1.48.04-.04.07-.05.11-.04.04,0,.05.04.05.1v.88c0,.09.03.17.1.23.06.06.14.1.23.1h2.53c.09,0,.17-.03.23-.1.06-.06.1-.14.1-.23v-9.27c0-.9-.24-1.7-.71-2.41-.48-.71-1.16-1.26-2.04-1.66ZM416.31,144.07c0,.73-.32,1.34-.96,1.81-.64.48-1.41.72-2.31.72-.68,0-1.23-.16-1.66-.48-.43-.32-.65-.77-.65-1.36,0-.68.28-1.2.84-1.57.56-.37,1.32-.55,2.3-.55h2.31c.09,0,.14.05.14.14v1.29Z"/>
  <path class="cls-1" d="M439.78,139.34c-.78-.4-1.82-.85-3.12-1.35-1.23-.44-2.14-.8-2.72-1.09s-1.03-.6-1.32-.95c-.29-.35-.44-.8-.44-1.35,0-.77.28-1.37.84-1.79.56-.42,1.34-.63,2.35-.63,1.25,0,2.22.3,2.93.89s1.06,1.32,1.06,2.19v.3c0,.09.03.17.1.23s.14.1.23.1h2.48c.09,0,.17-.03.23-.1s.1-.14.1-.23v-.47c0-1.12-.29-2.1-.88-2.96-.59-.85-1.41-1.52-2.46-1.99-1.05-.48-2.27-.71-3.64-.71-1.96,0-3.53.47-4.7,1.4-1.17.93-1.76,2.21-1.76,3.82,0,1.08.27,1.98.81,2.71s1.21,1.3,2.02,1.72,1.86.87,3.16,1.35c1.16.44,2.02.81,2.6,1.1.58.29,1.02.62,1.33.98s.47.79.47,1.31c0,.75-.28,1.37-.85,1.84-.57.48-1.41.71-2.53.71-1.3,0-2.33-.28-3.08-.84-.75-.56-1.13-1.26-1.13-2.1v-.52c0-.09-.03-.17-.1-.23s-.14-.1-.23-.1h-2.45c-.09,0-.17.03-.23.1s-.1.14-.1.23v.69c0,1.12.29,2.09.87,2.92.58.83,1.4,1.47,2.46,1.92,1.06.46,2.31.69,3.74.69,2.11,0,3.77-.49,4.99-1.46,1.22-.97,1.83-2.28,1.83-3.93,0-1.08-.28-1.98-.84-2.71-.56-.72-1.23-1.29-2.01-1.69Z"/>
  <path class="cls-1" d="M455.69,135.71c-1.06-.71-2.31-1.07-3.74-1.07s-2.64.35-3.67,1.06c-1.04.71-1.75,1.66-2.13,2.87-.29.84-.44,1.92-.44,3.25s.15,2.47.44,3.3c.4,1.23,1.12,2.21,2.15,2.93,1.03.72,2.25,1.09,3.66,1.09s2.68-.34,3.74-1.03c1.06-.69,1.77-1.62,2.12-2.79.04-.13.08-.34.14-.63.02-.11,0-.2-.07-.26s-.14-.11-.23-.12l-2.47-.38c-.2-.04-.33.05-.39.27,0,.04,0,.06-.03.08,0,.05,0,.1-.03.14-.15.6-.47,1.09-.98,1.44-.5.36-1.1.54-1.8.54s-1.31-.19-1.79-.56c-.48-.38-.81-.88-.99-1.53-.17-.62-.25-1.44-.25-2.45s.09-1.86.28-2.45c.17-.62.49-1.11.98-1.47.49-.36,1.08-.54,1.77-.54s1.26.17,1.76.5.83.75.99,1.26c.04.11.07.24.11.38.02.06.03.13.03.22.05.18.17.27.33.27h.05l2.47-.36c.2-.04.3-.15.3-.33v-.05c-.04-.29-.1-.59-.19-.88-.35-1.08-1.05-1.98-2.12-2.7Z"/>
  <path class="cls-1" d="M464.27,134.83h-2.53c-.09,0-.17.03-.23.1s-.1.14-.1.23v13.42c0,.09.03.17.1.23.06.06.14.1.23.1h2.53c.09,0,.17-.03.23-.1s.1-.14.1-.23v-13.42c0-.09-.03-.17-.1-.23-.06-.06-.14-.1-.23-.1Z"/>
  <path class="cls-1" d="M463.06,129.03c-.57,0-1.04.18-1.4.55s-.55.83-.55,1.4.18,1.04.55,1.4.83.55,1.4.55,1.04-.18,1.4-.55.55-.83.55-1.4-.18-1.04-.55-1.4-.83-.55-1.4-.55Z"/>
  <path class="cls-1" d="M474.56,134.64c-1.43,0-2.65.37-3.67,1.11-1.02.74-1.71,1.76-2.08,3.04-.22.66-.33,1.52-.33,2.58,0,1.76.21,3.13.63,4.12.46,1.16,1.19,2.05,2.19,2.7s2.21.96,3.64.96c1.15,0,2.2-.22,3.15-.66.94-.44,1.7-1.06,2.27-1.87.11-.17.08-.31-.08-.44l-1.71-1.4c-.06-.05-.12-.08-.19-.08-.11,0-.2.05-.28.16-.73,1.03-1.72,1.54-2.97,1.54-1.71-.02-2.78-.69-3.22-2.01-.11-.22-.19-.63-.25-1.24,0-.09.04-.14.14-.14h8.61c.22,0,.33-.11.33-.33l.03-.85c0-.57-.04-1.08-.11-1.54-.46-3.78-2.49-5.67-6.11-5.67ZM477.39,140.66h-5.58c-.11,0-.15-.05-.11-.14.04-.5.11-.9.22-1.21.18-.6.5-1.08.95-1.42.45-.34,1.01-.51,1.69-.51.73,0,1.34.18,1.83.55.49.37.81.88.98,1.54.07.24.13.59.17,1.04,0,.09-.05.14-.14.14Z"/>
  <path class="cls-1" d="M490.97,134.64c-1.52,0-2.66.5-3.41,1.49-.02.05-.05.07-.08.05-.04-.02-.06-.05-.06-.11v-.88c0-.09-.03-.17-.1-.23-.06-.06-.14-.1-.23-.1h-2.53c-.09,0-.17.03-.23.1s-.1.14-.1.23v13.39c0,.09.03.17.1.23.06.06.14.1.23.1h2.53c.09,0,.17-.03.23-.1s.1-.14.1-.23v-8.39c0-.84.24-1.52.73-2.04.49-.51,1.12-.77,1.91-.77s1.42.26,1.9.78c.48.52.71,1.21.71,2.05v8.36c0,.09.03.17.1.23.06.06.14.1.23.1h2.53c.09,0,.17-.03.23-.1.06-.06.1-.14.1-.23v-9.02c0-1.52-.45-2.72-1.33-3.6-.89-.88-2.08-1.32-3.56-1.32Z"/>
  <path class="cls-1" d="M509.23,135.71c-1.06-.71-2.31-1.07-3.74-1.07s-2.64.35-3.67,1.06c-1.04.71-1.75,1.66-2.13,2.87-.29.84-.44,1.92-.44,3.25s.15,2.47.44,3.3c.4,1.23,1.12,2.21,2.15,2.93,1.03.72,2.25,1.09,3.66,1.09s2.68-.34,3.74-1.03c1.06-.69,1.77-1.62,2.12-2.79.04-.13.08-.34.14-.63.02-.11,0-.2-.07-.26s-.14-.11-.23-.12l-2.47-.38c-.2-.04-.33.05-.39.27,0,.04,0,.06-.03.08,0,.05,0,.1-.03.14-.15.6-.47,1.09-.98,1.44-.5.36-1.1.54-1.8.54s-1.31-.19-1.79-.56c-.48-.38-.81-.88-.99-1.53-.17-.62-.25-1.44-.25-2.45s.09-1.86.28-2.45c.17-.62.49-1.11.98-1.47.49-.36,1.08-.54,1.77-.54s1.26.17,1.76.5.83.75.99,1.26c.04.11.07.24.11.38.02.06.03.13.03.22.05.18.17.27.33.27h.05l2.47-.36c.2-.04.3-.15.3-.33v-.05c-.04-.29-.1-.59-.19-.88-.35-1.08-1.05-1.98-2.12-2.7Z"/>
  <path class="cls-1" d="M520.4,134.64c-1.43,0-2.65.37-3.67,1.11-1.02.74-1.71,1.76-2.08,3.04-.22.66-.33,1.52-.33,2.58,0,1.76.21,3.13.63,4.12.46,1.16,1.19,2.05,2.19,2.7s2.21.96,3.64.96c1.15,0,2.2-.22,3.15-.66.94-.44,1.7-1.06,2.27-1.87.11-.17.08-.31-.08-.44l-1.71-1.4c-.06-.05-.12-.08-.19-.08-.11,0-.2.05-.28.16-.73,1.03-1.72,1.54-2.97,1.54-1.71-.02-2.78-.69-3.22-2.01-.11-.22-.19-.63-.25-1.24,0-.09.04-.14.14-.14h8.61c.22,0,.33-.11.33-.33l.03-.85c0-.57-.04-1.08-.11-1.54-.46-3.78-2.49-5.67-6.11-5.67ZM523.23,140.66h-5.58c-.11,0-.15-.05-.11-.14.04-.5.11-.9.22-1.21.18-.6.5-1.08.95-1.42.45-.34,1.01-.51,1.69-.51.73,0,1.34.18,1.83.55.49.37.81.88.98,1.54.07.24.13.59.17,1.04,0,.09-.05.14-.14.14Z"/>
  <path class="cls-1" d="M168.09,94.67c-.02-1.03.03-2.07-.09-3.1,0-.77-.04-1.54-.1-2.3-.23-3.61-.65-7.22-1.44-10.75-.02-.14-.16-.19-.28-.19-3.46-.5-6.93-.96-10.39-1.41-.24-1.03-.56-2.04-.86-3.06-.47-1.58-1.16-3.09-1.75-4.63-.11-.31-.31-.6-.33-.93.1-.16.24-.28.37-.41,1.08-1.09,2.17-2.18,3.22-3.3,1.28-1.32,2.61-2.61,3.85-3.96-1.74-3.43-3.73-6.73-5.94-9.88-.96-1.37-2-2.7-3.03-4.03-1.2.41-2.38.91-3.57,1.35-2.03.79-4.07,1.56-6.1,2.35-.1.03-.26.12-.34,0-1.6-1.8-3.3-3.51-5.11-5.09-.64-.6-1.34-1.12-1.99-1.7.08-.48.28-.94.4-1.42.64-2.23,1.29-4.45,1.94-6.68.19-.74.46-1.45.61-2.2-4.41-3.3-9.29-5.92-14.35-8.1-.11-.06-.21.01-.28.09-1.21,1.2-2.42,2.39-3.62,3.59-1.38,1.31-2.71,2.67-4.07,4-3.17-1.06-6.4-1.99-9.69-2.59-.83-3.51-1.71-7.01-2.52-10.52-1.9-.27-3.82-.41-5.74-.54-2.25-.05-4.51-.05-6.77,0-.53,0-1.06.11-1.59.09-.8.08-1.59.18-2.39.21-.49,1.64-.91,3.29-1.38,4.94-.52,1.92-1.08,3.82-1.57,5.74-3.25.56-6.48,1.25-9.6,2.34-.1.04-.2.07-.31.06-.23-.21-.43-.46-.63-.69-2.16-2.42-4.31-4.84-6.47-7.26-.09-.13-.26-.09-.39-.06-5.33,2.16-10.28,5.12-15.06,8.3.54,1.79,1.17,3.55,1.74,5.32.55,1.65,1.1,3.31,1.64,4.96-.06.1-.16.17-.25.25-2.43,2.02-4.74,4.19-6.98,6.42-.81-.43-1.67-.79-2.49-1.2-2.4-1.12-4.78-2.28-7.18-3.38-1.24,1.43-2.47,2.86-3.6,4.37-2.38,3.15-4.47,6.52-6.17,10.09.5.61,1.08,1.14,1.62,1.71,1.2,1.2,2.37,2.43,3.56,3.65.78.8,1.57,1.59,2.35,2.39.09.07.1.19.06.29-1.09,2.51-2.01,5.08-2.76,7.71-.1.36-.24.71-.27,1.08-.93.17-1.88.25-2.82.39-2.75.33-5.49.68-8.24,1.04-.69,2.85-1.19,5.74-1.46,8.66-.04.62-.14,1.23-.13,1.85-.09.82-.09,1.64-.09,2.46,0,1.23-.02,2.47.01,3.7.33.07.66.17.98.27,3.19.93,6.37,1.87,9.56,2.8.13,3.08.64,6.14,1.3,9.16.03.22.17.46.09.68-3.1,1.9-6.22,3.79-9.32,5.7,1.53,5.56,3.66,10.97,6.48,16,3.61-.66,7.22-1.29,10.83-1.94.17-.07.24.12.32.23,1,1.64,2.11,3.21,3.3,4.73,1.01,1.23,1.98,2.5,2.99,3.73,4.64-3.74,9.26-7.53,13.9-11.28.14-.07.19-.23.06-.34-4.05-4.74-7.2-10.24-9.31-16.11-1.49-4.16-2.45-8.52-2.68-12.93-.04-1.96-.05-3.91.13-5.86.17-1.97.46-3.93.89-5.85,1.57-7.19,4.92-13.97,9.65-19.61,4.18-5,9.42-9.11,15.29-11.96,5.2-2.53,10.88-4.06,16.64-4.48,7.93-.6,16,.91,23.17,4.36,6,2.87,11.36,7.06,15.61,12.18,4.81,5.77,8.19,12.74,9.69,20.11.41,1.84.62,3.7.81,5.57,0,.47.04.94.09,1.41.04,2.17.07,4.34-.16,6.5-.18,2.1-.57,4.18-1.01,6.23,0-.05-.01-.1-.02-.14-.02.31-.1.62-.19.92-1.43,5.59-3.9,10.91-7.28,15.59-.45.61-.88,1.23-1.4,1.78-.49.63-1.04,1.21-1.51,1.85,2.09,1.75,4.18,3.5,6.27,5.24,1.27,1.08,2.61,2.08,3.92,3.13,1.36,1.06,2.7,2.14,4.07,3.18,1.6-2.09,3.19-4.2,4.64-6.4.44-.65.83-1.34,1.28-1.99.41-.02.8.13,1.2.19,3.09.69,6.19,1.34,9.27,2.04,2.57-4.72,4.81-9.65,6.22-14.86.07-.27.17-.54.14-.82-.27-.27-.58-.5-.87-.74-2.53-2.03-5.22-3.84-7.87-5.71.66-3.02,1.05-6.09,1.34-9.16,3.44-1.1,6.85-2.29,10.29-3.4ZM161.74,114.38c.12.13.4.2.37.42-.06.41-.23.8-.34,1.19-1.12,3.54-2.66,6.92-4.35,10.22-.8-.09-1.57-.34-2.37-.48-2.66-.6-5.33-1.15-7.98-1.77-.8,1.31-1.57,2.65-2.44,3.91-.86,1.29-1.76,2.55-2.7,3.79-1.29-1.04-2.6-2.04-3.89-3.07-1.27-.98-2.47-2.03-3.71-3.05-.77-.66-1.55-1.29-2.32-1.95,2.26-2.8,4.15-5.9,5.71-9.14,2.91-6.09,4.58-12.79,4.77-19.54.01-1.35.03-2.7-.03-4.05-.09-.55-.03-1.11-.13-1.67-.14-1.95-.48-3.87-.84-5.79-.01.05-.02.1-.03.15-.06-.7-.28-1.38-.43-2.06-1.75-6.86-5.03-13.34-9.53-18.81-4.32-5.29-9.76-9.66-15.86-12.74-6.14-3.1-12.94-4.88-19.8-5.16-1.29-.07-2.58-.04-3.87-.02-.68.1-1.37.02-2.05.14-1.08.06-2.16.19-3.23.35-6.95,1-13.67,3.58-19.54,7.42-4.36,2.86-8.26,6.4-11.5,10.48-4.58,5.73-7.85,12.5-9.45,19.66-.37,1.62-.64,3.26-.85,4.91-.06.87-.22,1.74-.22,2.61-.06.47-.08.94-.08,1.41-.04,1.99-.05,3.99.18,5.96.5,4.87,1.81,9.65,3.7,14.16,1.84,4.38,4.22,8.54,7.15,12.28-1.11.96-2.27,1.86-3.4,2.78-2.14,1.75-4.29,3.48-6.43,5.23-2.08-2.43-3.92-5.08-5.51-7.86-.97.1-1.91.34-2.87.48-2.06.36-4.1.75-6.16,1.1-.63.11-1.25.25-1.89.32-1.78-3.42-3.23-7-4.4-10.67-.1-.35-.23-.69-.28-1.05,3.06-1.9,6.14-3.77,9.22-5.64-.16-1.03-.49-2.02-.67-3.05-.73-3.33-1.15-6.72-1.21-10.13-3.48-1-6.95-2.05-10.44-3.04-.13-.14-.09-.35-.1-.52.07-.88.05-1.76.07-2.64.16-3.02.52-6.04,1.16-9,2.25-.31,4.51-.56,6.76-.86,1.4-.19,2.81-.33,4.2-.54.91-3.78,2.13-7.49,3.75-11.03.13-.33.34-.64.41-.99-.72-.8-1.51-1.53-2.25-2.32-1.25-1.33-2.56-2.6-3.81-3.92-.46-.48-.93-.95-1.39-1.43-.12-.08-.07-.24-.02-.35,1.96-3.72,4.37-7.2,7.08-10.42,3.2,1.5,6.38,3.02,9.57,4.53,1.26-1.26,2.48-2.54,3.78-3.76,1.23-1.15,2.47-2.29,3.76-3.37.74-.66,1.53-1.25,2.27-1.91-.99-2.92-1.94-5.86-2.92-8.79-.13-.43-.31-.84-.4-1.29,3.56-2.31,7.25-4.44,11.12-6.17.12-.09.26-.01.35.09,2.3,2.6,4.62,5.18,6.92,7.78.08.14.23.06.35.03,1.72-.64,3.47-1.22,5.25-1.66,1.83-.49,3.7-.82,5.56-1.16.59-.11,1.21-.15,1.79-.31.99-3.5,1.93-7.03,2.92-10.54.42-.02.84,0,1.25-.08.58-.06,1.17-.02,1.76-.06.52-.07,1.06-.04,1.58-.05.88,0,1.76-.03,2.64.06,1.65,0,3.29.17,4.94.3.16.95.46,1.88.66,2.82.62,2.54,1.22,5.08,1.84,7.62,4.21.65,8.32,1.81,12.33,3.25.12.03.28.1.39-.01,2.52-2.43,4.98-4.94,7.5-7.37.08-.12.24-.11.36-.05,3.66,1.67,7.23,3.59,10.52,5.9-.44,1.74-1.01,3.45-1.48,5.19-.5,1.67-.96,3.35-1.47,5.02,1.3,1.02,2.6,2.05,3.82,3.17,2.05,1.84,3.93,3.86,5.72,5.94,1.92-.72,3.83-1.47,5.74-2.2,1.35-.51,2.69-1.07,4.06-1.54,2,2.58,3.79,5.32,5.43,8.14.36.68.82,1.32,1.1,2.03-.38.47-.84.86-1.25,1.31-1.18,1.25-2.41,2.46-3.6,3.69-.76.82-1.56,1.6-2.34,2.41-.14.11-.04.29,0,.42.54,1.33,1.07,2.68,1.6,4.02.28.72.59,1.42.82,2.16.55,1.71,1.03,3.45,1.42,5.21,1.76.2,3.51.48,5.28.68,1.77.25,3.55.46,5.31.75.29,1.85.6,3.7.77,5.57.18,2.12.36,4.23.33,6.36-3.25,1.05-6.48,2.15-9.72,3.22-.13.05-.34.08-.32.27-.38,4.08-.81,8.18-1.86,12.16,2.78,2.01,5.65,3.9,8.37,5.99Z"/>
  <path class="cls-1" d="M141.08,147.27c-1.57-.86-3.17-1.68-4.82-2.37.64-1.51,1.37-2.97,2.04-4.48-11.99-5.46-24.98-8.76-38.12-9.64-.43-.06-.87-.02-1.3-.09-.63-.06-1.27,0-1.9-.1-2.02-.04-4.05-.05-6.07-.03-.85.01-1.7-.01-2.55.08-.76-.01-1.5.07-2.26.1-1.33.12-2.67.18-3.99.34-4.04.39-8.05,1.04-12.01,1.89-7.62,1.67-15.08,4.12-22.18,7.38.47,1,.94,1.99,1.41,2.99.22.51.53.99.68,1.53-1.89.75-3.66,1.74-5.46,2.69-.93.54-1.84,1.13-2.77,1.68,2.7,4.97,5.34,9.98,8.02,14.97.55-.2,1.07-.49,1.61-.72,3.85-1.78,7.82-3.32,11.88-4.57,1.62-.51,3.27-.89,4.91-1.35-.58-2.34-1.18-4.67-1.73-7.01,7.12-1.68,14.4-2.75,21.7-3.05.76-.08,1.53-.04,2.29-.07.47.01.94-.07,1.41-.05,1.2.02,2.41-.04,3.6.05.77.02,1.55,0,2.32.04.6.08,1.21.04,1.82.1.44.08.89.02,1.33.11,2.38.14,4.75.4,7.11.73,3.96.55,7.9,1.3,11.76,2.32-.56,2.31-1.14,4.61-1.71,6.91.92.24,1.84.48,2.76.71,3.86,1.06,7.63,2.42,11.3,3.98,1.46.6,2.89,1.3,4.34,1.95,2.54-4.73,5.06-9.46,7.6-14.19.13-.27.32-.51.36-.82-.24-.19-.51-.33-.77-.49-.87-.52-1.7-1.09-2.61-1.53ZM50.94,160.84c-1.76-3.29-3.51-6.58-5.28-9.86-.11-.27-.35-.51-.36-.8.25-.26.62-.37.93-.56,1.65,3.15,3.32,6.3,4.97,9.45.25.44.46.89.72,1.33-.32.15-.65.3-.98.44ZM53.17,159.85c-1.89-3.64-3.82-7.25-5.71-10.89.4-.22.81-.42,1.22-.62,1.83,3.7,3.71,7.37,5.54,11.07-.35.15-.7.3-1.06.44ZM55.46,158.91c-1.84-3.73-3.73-7.44-5.59-11.16.43-.19.85-.38,1.29-.57,1.79,3.77,3.55,7.54,5.25,11.35-.31.13-.63.25-.95.37ZM57.65,158.05c-.57-1.3-1.18-2.56-1.73-3.87.44.03.88.15,1.3.26.16.1.2.3.28.46.36.95.8,1.87,1.14,2.83-.33.11-.65.24-.98.33ZM59.91,157.26c-.34-.81-.68-1.62-1-2.43.41.08.82.15,1.21.27.16.03.17.22.24.34.18.51.41.99.57,1.5-.34.12-.67.23-1.02.32ZM62.22,156.52c-.15-.35-.31-.7-.41-1.07.77.18,1.55.3,2.32.49-.62.24-1.27.38-1.91.58ZM98.56,144.91c-.47,0-.94-.02-1.4-.07-2.49-.05-4.99-.05-7.48-.01-.53-.02-1.05.11-1.58.08-.79-.02-1.58.1-2.37.1-.44.07-.88.07-1.32.09-.83.12-1.66.14-2.49.25-8.88.85-17.65,2.76-26.12,5.56-1.46-3.08-2.93-6.16-4.38-9.25,11.16-4.76,23.15-7.6,35.26-8.32.64-.06,1.29,0,1.94-.1.96-.05,1.94,0,2.9-.1,1.14,0,2.29-.05,3.43.05.48,0,.97.01,1.46.02.72,0,1.44.11,2.16.09,12.43.68,24.77,3.53,36.23,8.44-.21.65-.56,1.25-.83,1.87-.96,2.08-1.92,4.15-2.88,6.22-.23.48-.41.99-.69,1.44-.76-.22-1.48-.55-2.23-.79-9.54-3.26-19.55-5.09-29.6-5.58ZM124.11,156.55c-.68-.13-1.33-.39-2-.53.79-.19,1.6-.32,2.39-.5-.1.36-.23.7-.39,1.03ZM126.4,157.33c-.34-.11-.68-.22-1.02-.32.23-.61.43-1.24.73-1.82.41-.14.85-.22,1.28-.29-.31.82-.66,1.62-1,2.43ZM127.67,157.79c.41-1.1.91-2.18,1.32-3.27.49-.1.98-.24,1.48-.32-.6,1.31-1.21,2.62-1.81,3.93-.33-.11-.65-.24-.99-.33ZM129.89,158.61c1.46-3.15,2.94-6.28,4.37-9.42.32-.64.58-1.3.91-1.93.42.19.85.36,1.26.56-1.85,3.72-3.74,7.43-5.58,11.16-.32-.13-.64-.25-.96-.37ZM132.99,159.85c-.31-.1-.61-.25-.91-.38,1.85-3.69,3.72-7.37,5.55-11.07.42.21.84.43,1.25.66-1.91,3.55-3.75,7.14-5.64,10.7-.03.11-.15.15-.25.09ZM136.3,159.15c-.31.56-.6,1.15-.92,1.7-.37-.02-.68-.26-1.01-.4,1.9-3.57,3.77-7.17,5.66-10.75.36.14.69.33,1.02.54-1.55,2.99-3.18,5.94-4.75,8.92Z"/>
  <path class="cls-1" d="M92.82,37.93c-.03-.49-.04-.99-.04-1.48-.29-.08-.59-.01-.88.03,0,.97.17,1.93.11,2.89-.67-.9-1.24-1.88-1.87-2.81-.32.01-.64.03-.95.04,0,.48.04.95.09,1.42,0,.99.14,1.97.12,2.96.29,0,.58,0,.88,0,.03-1.01-.16-2.01-.11-3.02.69.95,1.27,1.98,1.96,2.93.29-.02.58-.06.87-.09-.02-.42,0-.85-.05-1.27-.08-.52-.03-1.06-.12-1.58Z"/>
  <path class="cls-1" d="M95.59,38.11c-.1.92-.06,1.84-.08,2.77.3,0,.6,0,.9.01.07-1.47.09-2.94.09-4.4-.3,0-.6,0-.9-.01,0,.55,0,1.09-.02,1.64Z"/>
  <path class="cls-1" d="M100.05,39.81c-.28-.43-.46-.91-.68-1.37-.28-.58-.54-1.17-.82-1.75-.32-.1-.66-.1-.99-.13-.08,1.46-.26,2.92-.31,4.39.27.02.54.07.81.1.11-1,.19-2,.21-3.01.03,0,.1,0,.13.01.46,1.03.97,2.05,1.43,3.08.31.08.63.09.95.1.07-1.47.29-2.93.29-4.4-.28-.01-.54-.03-.82-.04-.06,1-.18,2-.22,3Z"/>
  <path class="cls-1" d="M86.9,36.89c-.36.01-.72.03-1.06.11-.36,1.51-.7,3.01-1.06,4.52.33-.03.65-.07.97-.12.07-.31.15-.63.21-.94.54,0,1.07-.13,1.61-.13.1.28.23.54.34.82.33,0,.67-.02.99-.1-.18-.46-.43-.9-.64-1.35-.46-.93-.89-1.88-1.37-2.8ZM86.11,39.67c.14-.58.24-1.17.37-1.75.25.54.48,1.09.72,1.64-.36.07-.73.08-1.1.11Z"/>
  <path class="cls-1" d="M80.96,38.08c-.4-.07-.82-.06-1.22.06-.55.15-1.11.28-1.66.44.38,1.41.72,2.84,1.1,4.25.66-.18,1.32-.34,1.97-.52.63-.19,1.15-.81,1.11-1.48,0-.4.02-.81-.06-1.21-.21-.64-.57-1.32-1.25-1.54ZM81.16,41.38c-.32.35-.85.33-1.27.49-.28-.9-.45-1.84-.74-2.74.46-.15.93-.34,1.42-.25.49.2.67.77.78,1.25.01.42.13.92-.2,1.26Z"/>
  <path class="cls-1" d="M115.27,40.63c-.81-.27-1.62-.55-2.43-.82-.33-.11-.65-.25-1-.28-.04.24-.11.47-.17.71.4.13.81.27,1.21.4-.33,1.16-.78,2.28-1.12,3.44.29.1.58.21.89.25.36-1.14.77-2.26,1.12-3.4.42.15.83.32,1.26.41.09-.24.16-.48.23-.73Z"/>
  <path class="cls-1" d="M71.83,40.77c.5,1.38,1.01,2.76,1.54,4.14.27-.12.56-.22.83-.34-.46-1.38-1.01-2.72-1.49-4.09-.3.07-.6.17-.88.3Z"/>
  <path class="cls-1" d="M141.09,67.28c.04-.31-.27-.55-.4-.81-.25.06-.53.14-.77.02-.41-.21-.72-.69-.58-1.16.2-.57.71-.95,1.25-1.18.31-.14.69-.21,1.01-.04.34.14.54.48.61.83.06.3-.15.54-.29.78.15.22.26.5.46.68.03,0,.09,0,.12,0,.5-.42.64-1.15.47-1.76-.17-.55-.51-1.05-1.02-1.32-.4-.24-.88-.25-1.33-.16-.72.18-1.38.62-1.82,1.22-.3.43-.44,1-.28,1.51.19.64.65,1.24,1.29,1.46.42.15.88.09,1.29-.05Z"/>
  <path class="cls-1" d="M38.17,100.94c.47,0,.95,0,1.4-.13.42-.22.54-.73.59-1.15.41.47.75,1.02,1.2,1.47.16-.22.32-.44.47-.68-.58-.57-1.11-1.2-1.68-1.78.48-.02.97,0,1.45-.02,0-.27,0-.54,0-.8-1.25,0-2.5.03-3.75.03.02-.39-.02-.77-.13-1.14,1.24.02,2.48-.09,3.72-.08,0-.27,0-.55-.01-.82-1.23-.01-2.46.1-3.69.09.04-.4-.07-.79-.15-1.18.08-.61.07-1.22.06-1.83h.35c.03.46-.11.92-.04,1.37.03.27.25.53.54.51.47,0,.83-.38,1.05-.75.16.14.31.33.55.32.55.07.92-.48,1.06-.94.15-.79-.18-1.55-.49-2.25.25,0,.5.03.75.03.01-.27.02-.54.03-.8-.46-.02-.91-.11-1.37-.11-.77-.07-1.54-.16-2.31-.19.02-.44-.02-.88-.02-1.31,1.24.08,2.46.29,3.68.47.05-.28.1-.57.11-.86-1.22-.11-2.42-.32-3.64-.47.01-.28.11-.59,0-.86-.1-.21.03-.43.06-.64,1.22.21,2.42.49,3.65.66.04-.27.1-.53.13-.79-1.21-.23-2.42-.48-3.63-.68.04-.2.09-.41.11-.62.02-.15-.12-.28-.08-.43.07-.32.16-.63.25-.94.3.09.59.18.9.22-.02.26-.03.53-.03.79.16-.01.33,0,.46-.1.43-.26.9-.48,1.22-.88.02-.09.04-.27-.1-.28-.75-.21-1.51-.38-2.28-.56.12-.33.07-.68.07-1.02,1.2.3,2.41.56,3.6.89.11-.26.19-.53.21-.8-1.18-.34-2.38-.59-3.57-.9.1-.32.13-.65.14-.98.22-.77.46-1.53.69-2.3.25.05.5.13.72.27-.16.01-.32.03-.48.04-.12.39-.29.77-.27,1.18-.02.4.22.8.58.97.47.25,1.1.19,1.47-.21.39-.36.53-.88.61-1.39.28.06.55.26.83.22.1-.24.18-.49.24-.74-.71-.21-1.41-.47-2.11-.7-.19-.03-.36-.23-.26-.43.08-.29.2-.75.6-.67.49.14.71.67.91,1.1.28-.09.53-.25.77-.41-.16-.44-.38-.89-.75-1.18-.46-.4-1.21-.46-1.68-.06-.38.31-.54.83-.51,1.32-.15-.04-.3-.08-.46-.11.08-.33.21-.66.21-1.01.15-.55.36-1.08.55-1.61.57.16,1.1.42,1.66.62.61.23,1.19.54,1.82.68.1-.24.19-.48.29-.72-1.12-.48-2.28-.9-3.41-1.37.07-.26.17-.52.25-.78-.21-.07-.45-.24-.67-.17-.17.23-.23.52-.4.76-.3-.13-.62,0-.92.06-.72.18-1.49.5-1.9,1.16-.25.5-.41,1.13-.1,1.64.3.57,1.12.69,1.6.29.17-.24.24-.52.35-.78-.34.12-.71.24-1.07.13-.38-.28-.25-.87.03-1.17.46-.49,1.16-.57,1.79-.7-.31.88-.63,1.77-.92,2.66-.05.17,0,.36-.06.53-.1.4-.34.77-.32,1.19-.09.55-.33,1.06-.44,1.61-.02.35-.03.73-.21,1.05-.47.47-1.01.86-1.45,1.36-.45.52-.93,1.04-1.19,1.69-.24.67-.16,1.51.32,2.06.37.42.99.36,1.47.2-.06.28-.19.59-.06.88.1.21,0,.44-.03.66-.05.02-.1.04-.15.05-.77.45-1.5.96-2.26,1.43.13.3.28.6.43.9.63-.58,1.21-1.22,1.88-1.74.03.41-.18.82,0,1.23-.02.56-.09,1.11-.15,1.67.18,1.25-.07,2.52-.02,3.78.23.74,0,1.53.16,2.28.16.64.08,1.29.12,1.94.01.14.11.25.16.39.07.65.06,1.31.19,1.96.23-.03.47-.07.7-.09,0-.2-.01-.4-.01-.61ZM40.67,78.02c.29.05.57.14.84.26.07.37.04.83-.27,1.08-.18.18-.55.17-.65-.08-.21-.39-.1-.88.09-1.26ZM37.75,90.91c.72.08,1.45.09,2.16.22.28.6.67,1.25.55,1.94-.08.17-.2.35-.38.4-.27.01-.4-.29-.47-.5-.01-.28.01-.57.01-.85-.18.07-.36.14-.55.2-.02.48.01.96-.08,1.43-.02.13-.14.22-.25.29-.06-.65.02-1.31,0-1.96-.33,0-.67-.01-1-.01.01-.38.01-.77.02-1.15ZM37.38,85.42c-.17.16-.42.15-.64.16-.5.02-.8-.57-.7-1.01.17-1.1.98-1.94,1.78-2.65,0,.28.05.56-.03.83-.14.52-.26,1.05-.39,1.57-.1.36.08.73-.03,1.09ZM37.99,98.72c.43.02.86-.04,1.28.03.39.32.41.95.04,1.29-.41.04-.82.04-1.23.11-.06-.48-.07-.95-.09-1.43Z"/>
  <path class="cls-1" d="M147.66,84.51c-.79.14-1.51.73-1.65,1.54-.04.48-.07.99.15,1.44.28.71,1.04,1.22,1.82,1.15.73.04,1.52-.12,2.05-.66.92-.92.65-2.7-.49-3.33-.58-.29-1.26-.31-1.88-.15ZM149.43,87.31c-.4.34-.95.45-1.46.44-.49,0-1.02-.29-1.17-.78-.06-.34-.09-.73.14-1.01.24-.35.67-.48,1.07-.57.46-.07.97-.06,1.36.22.51.4.56,1.27.06,1.7Z"/>
  <path class="cls-1" d="M148.68,89.33c-.55.03-1.11.16-1.56.51-.51.38-.77,1.03-.71,1.65-.04.56.3,1.05.74,1.36-.18.04-.35.09-.53.14.01.2.02.39.03.58.79.04,1.56-.13,2.35-.11.02-.62-.06-1.23-.1-1.85-.24,0-.49.01-.72.02,0,.34.02.68.02,1.02-.54-.03-1.05-.5-.99-1.06-.07-.46.21-.9.62-1.1.45-.2.95-.22,1.43-.15.57.1,1.06.65.97,1.25.03.4-.3.71-.62.88.01.3.06.59.1.89.78-.14,1.33-.9,1.31-1.68.03-.56-.09-1.16-.48-1.59-.44-.55-1.18-.77-1.86-.74Z"/>
  <path class="cls-1" d="M146.46,95.57c0,.28-.01.56-.01.84.52.2,1.12.05,1.67.14.91.48,1.78,1.05,2.71,1.51.01-.35.01-.69.01-1.04-.63-.28-1.24-.62-1.88-.9.5-.23,1-.46,1.5-.68.17-.08.41-.13.44-.35.03-.3.02-.6.02-.9-.93.39-1.79.94-2.71,1.37-.58.06-1.16-.01-1.74.01Z"/>
  <path class="cls-1" d="M146.1,100.21c0,.9-.28,1.78-.19,2.69.11.62.74,1.09,1.37,1.03.36.03.64-.24.87-.48.16.3.45.53.79.56.57.1,1.12-.34,1.24-.89.17-.8.2-1.63.31-2.45-.63-.11-1.27-.13-1.9-.24-.83-.07-1.65-.23-2.49-.22ZM147.71,102.74c-.11.32-.49.24-.75.2-.14-.09-.28-.22-.28-.39-.04-.47.06-.93.11-1.38.39.01.78.02,1.16.11-.09.48-.06.99-.24,1.46ZM149.62,101.46c-.04.43-.08.86-.16,1.27-.02.26-.34.47-.58.34-.18-.05-.32-.23-.32-.42-.02-.44.11-.86.11-1.3.32,0,.64.03.95.1Z"/>
  <path class="cls-1" d="M147.91,104.93c-.58-.17-1.24-.23-1.81,0-1.23.52-1.66,2.35-.74,3.34.66.71,1.71.89,2.64.76,1.12-.28,1.73-1.61,1.42-2.67-.17-.72-.83-1.21-1.51-1.41ZM148.19,107.96c-.42.27-.95.22-1.41.09-.42-.13-.87-.36-1.03-.79-.24-.56.08-1.31.68-1.48.52-.18,1.08-.01,1.57.2.42.18.71.62.71,1.08-.03.36-.21.72-.52.91Z"/>
  <path class="cls-1" d="M102.03,106.51c.08-.18.15-.36.22-.55-.55-.24-1.15-.34-1.74-.3,0,.18,0,.37,0,.55.52,0,1.03.16,1.53.3Z"/>
  <path class="cls-1" d="M140.93,117.5c-.15.28-.34.55-.41.87.18.24.42.44.64.65-.23.49-.48.97-.72,1.45-.31-.06-.62-.11-.94-.13-.15.29-.3.58-.41.89,1.53.16,3.06.4,4.59.56.13-.27.28-.53.4-.81.09-.2-.13-.34-.24-.47-.99-.98-1.91-2.04-2.91-3.01ZM141.24,120.59c.17-.31.3-.63.47-.93h.1c.41.37.8.77,1.19,1.18-.59-.03-1.17-.18-1.75-.24Z"/>
  <path class="cls-1" d="M99.49,141.17c.22.29.55.47.85.65.01-.25.01-.5.04-.75.1-.57.05-1.15.14-1.72,0-.62.1-1.22.11-1.84.32.02.64.03.96.03-.11-.25-.22-.49-.33-.74-.56-.09-1.13-.06-1.69-.14-.57-.07-1.15,0-1.72-.07-.46-.06-.93,0-1.39-.1-.18-.04-.36-.04-.54-.04-2.5-.02-4.99-.03-7.49.04-.94.11-1.9.02-2.83.21-.62.05-1.25.11-1.87.12.13.24.27.47.43.7.2.02.41.03.61.06.02.49.02.99.08,1.47,0,1.06,1.27,1.77,2.21,1.43,0,.21,0,.43,0,.65.29.18.58.34.89.49,0-.33,0-.66-.03-.99-.08-.55-.03-1.11-.08-1.67-.06-.57-.08-1.14-.08-1.7.71,0,1.41-.02,2.12-.02,0,.48,0,.96.02,1.44-.26-.09-.63-.24-.83.05-.22.28.01.64.24.84.68.68,1.34,1.37,2.03,2.03.1-.11.2-.21.3-.3-.42-.47-.9-.87-1.31-1.35.17-.18.44-.35.43-.63.03-.7,0-1.4,0-2.1.67-.11,1.35-.02,2.02-.05,0,.61,0,1.22,0,1.82-.17.04-.34.08-.51.12.03.12.05.24.14.34.26.3.52.6.8.88.08.1.22.1.35.11.08-.21.1-.43.11-.65.43,0,.86,0,1.29,0,0,.41-.01.81,0,1.21.29.18.56.38.87.53.02-1.44.03-2.87.03-4.3.3,0,.62-.03.92.06.24.06.5,0,.74.08.01.6-.12,1.19-.08,1.79-.19.01-.39.04-.57.1.2.46.57.8.88,1.19.09.15.26.15.42.16.06-.21.08-.43.09-.65.43.05.87.1,1.31.1,0,.37-.03.73-.08,1.1ZM86.96,139.31c-.21.22-.47.4-.75.53-.14.08-.29,0-.43-.06-.08-.78-.14-1.55-.14-2.33.42,0,.84-.03,1.26-.04-.04.63.1,1.26.06,1.89ZM95,139.03c-.44-.02-.91.07-1.33-.05,0-.58,0-1.17,0-1.75.45,0,.89,0,1.34,0,0,.6-.02,1.19,0,1.79ZM98.33,139.27c.01-.62.01-1.24.1-1.86.44.02.88.03,1.32.03.03.62-.12,1.23-.1,1.86-.44,0-.89-.03-1.33-.03Z"/>
  <path class="cls-1" d="M79.59,140.84c.03.37.06.75.15,1.12.29.18.61.31.92.43-.09-.7-.2-1.4-.29-2.1-.08-.75-.26-1.47-.28-2.22.31,0,.62-.06.93-.12-.2-.23-.33-.52-.58-.69-1.85.27-3.71.51-5.54.92-.87.12-1.73.35-2.59.51-1.12.18-2.24.37-3.32.71-1.4.27-2.77.67-4.16.99.18.25.39.48.62.68,1.01-.27,2.02-.53,3.04-.75.05.24.11.47.15.71-.82.21-1.66.4-2.47.63-.2.04-.27.23-.32.4.48.19,1.01.27,1.44.56.23.15.49.36.46.66.03.22-.14.37-.3.48-.31.14-.43-.33-.73-.29-.26-.03-.31.26-.38.44-.03.15-.07.34.05.47.23.3.63.34.97.37.39.3.73.67,1.12.97.14-.04.28-.1.41-.16-.35-.39-.74-.73-1.09-1.12.43-.25.89-.68.8-1.23-.14-.57-.71-.86-1.2-1.09.48-.12.95-.28,1.44-.33.15.74.33,1.46.49,2.2.32.12.64.24.96.33-.28-1.42-.69-2.81-.93-4.23.4-.07.78-.2,1.18-.25.26,1.22.5,2.44.78,3.65.31.13.62.25.93.37-.23-1.42-.59-2.83-.86-4.24.47-.14.97-.16,1.45-.25.61-.1,1.2-.29,1.82-.31.05.45.16.88.21,1.33-.77.19-1.57.23-2.31.54,0,.12,0,.24,0,.37.31.24.62.5.94.73.12.11.3.06.46.08.02-.25.01-.5-.01-.74.36-.07.71-.14,1.07-.19.1.52.2,1.03.28,1.56.3.13.6.26.91.38-.01-.43-.12-.85-.19-1.27-.16-1-.38-1.99-.49-2.99.48-.06.95-.2,1.42-.3.13.6.23,1.21.3,1.82-.16.06-.44.05-.48.26.29.35.68.59,1.03.89.12.12.28.13.44.14.06-.23.04-.47.04-.71.44-.02.87-.13,1.32-.13ZM78.13,140.27c-.1-.61-.21-1.23-.29-1.84.45-.05.89-.13,1.34-.22.15.61.22,1.23.27,1.85-.44.05-.88.14-1.32.21Z"/>
  <path class="cls-1" d="M83.54,37.34c-.3.04-.59.1-.89.13.16,1.44.5,2.87.66,4.31.29,0,.59-.04.88-.07.04-.6-.14-1.19-.21-1.77-.17-.87-.28-1.74-.44-2.6Z"/>
  <path class="cls-1" d="M109.59,41.64c-.12.52-.34,1.01-.38,1.54.28.09.56.17.86.19.29-1.06.6-2.12.89-3.19.09-.34.22-.68.25-1.03-.29-.05-.56-.13-.83-.23-.31.89-.52,1.81-.78,2.71Z"/>
  <path class="cls-1" d="M74.78,111.49c0,.24-.01.47-.01.7.79.02,1.58.02,2.37,0-.02-.24-.05-.47-.07-.7-.77,0-1.53,0-2.29,0Z"/>
  <path class="cls-1" d="M103.18,38.07c.33-.18.72-.06,1.04.1.26.12.28.43.36.67.29.06.58.12.88.11-.03-.23-.05-.47-.12-.69-.17-.42-.53-.74-.96-.88-.4-.17-.84-.13-1.26-.12-.9.09-1.43,1.34-.82,2.02.52.51,1.29.62,1.87,1.03.27.18.15.62-.12.74-.37.17-.79.05-1.13-.11-.28-.14-.4-.45-.38-.74-.29-.04-.57-.11-.86-.13-.06.44.03.92.37,1.23.59.55,1.45.65,2.22.53.46-.14.86-.51.94-.99.03-.34.08-.75-.2-1-.53-.53-1.31-.66-1.93-1.06-.26-.18-.15-.58.1-.7Z"/>
  <path class="cls-1" d="M68.74,46.01c.12-.32-.01-.67-.18-.94-.19-.29-.49-.57-.86-.49-.52.11-.79.61-1.16.93-.24.11-.5-.02-.68-.18.07-.13.1-.31.24-.38.49-.3,1.03-.51,1.51-.82-.13-.32-.3-.62-.44-.94.24-.12.47-.25.69-.39-.12-.21-.23-.42-.34-.63-1.25.65-2.51,1.28-3.76,1.94-.65.6-1.5.94-2.18,1.52-.59.48-1.36.72-1.84,1.33-.45.38-.97.68-1.43,1.04-.7.72-1.56,1.24-2.33,1.87.14.21.28.41.44.6.31-.25.63-.48.95-.72.2.27.4.54.61.81-.15.12-.32.24-.44.4-.1.29.27.38.48.41.52.06,1.05.34,1.56.13.01-.35-.29-.59-.49-.84.35-.29.72-.56,1.07-.84.37.45.68.94,1.02,1.4-.31.31-.63.63-.79,1.06.22.05.43.17.66.14.19-.18.34-.41.58-.53.19-.07.34.1.5.17-.02.15.02.33-.11.44-.3.34-.67.63-1.1.77-.43.07-.86.03-1.29,0,.01.27.01.54.06.81,1.2.04,2.49-.38,3.23-1.38.27-.33.25-.84-.03-1.15-.23-.35-.65-.51-1.06-.48.01-.13.09-.28-.02-.39-.61-.85-1.21-1.71-1.82-2.56-.05-.09-.19-.24-.05-.32.26-.18.46-.43.69-.63.71-.45,1.42-.9,2.13-1.36.3.48.6.96.9,1.44-.42,0-.85.03-1.26-.01.22-.23.5-.39.79-.5-.17-.17-.35-.33-.53-.49-.45.26-.9.58-1.14,1.06-.28.75.24,1.71,1.07,1.79.69.11,1.24-.41,1.68-.87.15.21.28.43.42.65.25-.12.49-.26.71-.43-.63-1.05-1.34-2.06-1.95-3.13.31-.19.59-.44.9-.64.68-.35,1.36-.7,2.03-1.05.08.07.11.18.15.28-.46.25-.96.44-1.39.76-.24.3-.36.8-.08,1.12.43.34,1.02.37,1.55.32.54-.03.68-.84,1.27-.71.25.5-.13,1.03-.53,1.32-.42.05-.84-.07-1.25,0-.18.13-.33.34-.3.57.1.27.39.37.65.34.34.02.62-.25.96-.21.52.05,1.03.23,1.56.2.13-.22.2-.48.28-.72-.41,0-.81,0-1.22.01.28-.24.6-.49.7-.86ZM58.64,50.04c-.2-.27-.4-.53-.62-.79.35-.27.71-.55,1.07-.82h.1c.2.25.36.52.56.77-.37.29-.74.57-1.12.84ZM62.87,48.37c-.32-.01-.46-.33-.64-.55.54-.01,1.08-.03,1.62,0-.26.27-.58.59-.98.55Z"/>
  <path class="cls-1" d="M122.86,45.47c.16-.22.3-.45.41-.69-1.02-.6-2.03-1.19-3.04-1.81-.15.21-.3.43-.39.67.34.28.75.45,1.11.69-.31.46-.57.95-.86,1.43-.31.57-.68,1.11-.96,1.69.26.15.52.3.79.45.59-1.04,1.22-2.05,1.81-3.09.38.21.76.43,1.13.67Z"/>
  <path class="cls-1" d="M54.58,52.27c-.17-.17-.34-.35-.51-.52-.49.45-.94.93-1.45,1.36-.22.17-.3.46-.49.65-.48.48-.93,1-1.41,1.49-.39.65-.96,1.16-1.43,1.74-.42.6-.9,1.15-1.34,1.72-.1.14-.18.3-.19.47.14.17.36.27.55.39.19-.24.36-.51.55-.75.03,0,.08-.02.1-.02.41.31.83.62,1.19.98.09.66-.19,1.3-.54,1.84-.16.27-.5.4-.8.3.23-.3.46-.64.44-1.04-.12-.82-1.03-1.38-1.82-1.16-.41.12-.73.43-.95.79-.17.28-.12.64-.31.91-.65.97-1.3,1.94-1.94,2.92-.12.18-.06.41-.18.6-.37.69-.85,1.33-1.08,2.08-.48.94-1.01,1.86-1.47,2.82.22.11.45.22.69.28.31-.64.66-1.27.98-1.9.38.24.92.34,1.12.79-.37.14-.75.22-1.14.3.04.27.11.54.19.8,1.11-.16,2.22-.34,3.32-.56.03-.3.04-.6.04-.9-.59.15-1.17.29-1.77.41.02-.28.01-.57-.03-.85.44-.11.54-.58.74-.92.57.27,1.08.64,1.65.9.15-.23.28-.46.4-.71-1.06-.6-2.12-1.2-3.17-1.81.11-.32.3-.61.34-.95.3-.53.67-1.01,1-1.52.36.23.75.43,1.03.76-.04.05-.1.16-.14.21-.35,0-.69.06-1.04.12.05.27.1.53.11.8,1.12-.04,2.25-.15,3.38-.14.02-.32.09-.63.14-.95-.6.04-1.2.18-1.8.21.04-.27.06-.54.02-.81.3-.09.51-.3.68-.55.68.02,1.43-.15,1.86-.7.38-.55.7-1.2.65-1.88.34.25.65.53.99.77.18-.2.34-.41.51-.61-.93-.81-1.93-1.55-2.88-2.34.29-.35.53-.74.85-1.06.91.83,1.82,1.65,2.75,2.45.15-.22.5-.38.48-.66-.88-.82-1.81-1.59-2.68-2.41.33-.35.55-.79.9-1.12.57-.6,1.13-1.21,1.73-1.8.19.2.39.41.58.62-.45.45-.88.92-1.33,1.36-.21.2-.39.42-.54.66.14.17.26.41.51.45.48.07.99.05,1.42-.18.17-.35-.3-.54-.45-.8.28-.33.59-.64.88-.96.48.48.96.97,1.4,1.49.21-.19.42-.39.61-.59-.87-.86-1.66-1.79-2.54-2.66.2-.2.4-.4.59-.6ZM45.06,66.93c-.16.36-.28.73-.43,1.09-.35-.17-.69-.35-1.04-.53.16-.35.32-.69.52-1.02.03,0,.08-.03.11-.04.29.14.56.33.84.49ZM48.27,61.87c-.11.04-.22.07-.32.12-.23.37-.39.77-.6,1.15-.31-.23-.68-.39-.94-.68.08-.18.19-.33.29-.5.53.26,1.16-.04,1.39-.57-.09-.07-.18-.15-.28-.22-.23.07-.49.25-.73.09-.19-.21-.12-.59.13-.72.42-.22,1.06-.06,1.2.43.14.3-.03.61-.14.89Z"/>
  <path class="cls-1" d="M137.97,58.73c.2-.16.4-.32.59-.49-.76-.93-1.52-1.85-2.33-2.74-.19.17-.39.34-.56.53.28.33.55.67.85.98-.91.79-1.84,1.57-2.76,2.36.21.22.41.45.61.69.94-.76,1.82-1.57,2.76-2.32.28.33.55.67.84.99Z"/>
  <path class="cls-1" d="M143.09,75.07c.03.3.2.56.3.85,1.37-.47,2.7-1.06,4.06-1.56-.06-.27-.16-.53-.25-.8-.97.26-1.87.74-2.83,1.05.7-.92,1.45-1.8,2.16-2.71-.12-.29-.24-.6-.36-.89-1.34.52-2.69,1.05-4.02,1.58-.03.29.19.56.28.84.93-.39,1.87-.79,2.83-1.1-.7.94-1.49,1.8-2.17,2.75Z"/>
  <path class="cls-1" d="M44.08,113.7c-.17.23-.45.44-.75.43-.21-.09-.32-.31-.39-.51-.14-.42-.3-.83-.39-1.27.67-.22,1.35-.39,2.02-.6-.03-.28-.11-.55-.23-.8-1.17.35-2.34.68-3.51,1.03-.12-.39-.33-.73-.47-1.11,1.19-.36,2.39-.69,3.57-1.06-.07-.27-.15-.53-.23-.79-1.18.35-2.36.7-3.56,1.03-.16-.58-.43-1.11-.51-1.71-.2-.47.4-.88.82-.66.41.16.39.67.5,1.03.59-.3,1.18-.73,1.37-1.4.12-.69-.11-1.42-.56-1.95.31-.06.63-.12.94-.18-.03-.27-.09-.54-.13-.81-1.22.21-2.43.45-3.65.65-.05-.25-.11-.51-.13-.76-.24.02-.48.04-.71.08.07,1.16.46,2.26.67,3.39.19.75.28,1.52.61,2.22-.4.32-.77.69-1.07,1.11-.29.43-.58.92-.55,1.45,0,.63.32,1.34.92,1.59.57.22,1.23-.16,1.39-.72,0-.29-.1-.57-.16-.85-.19.26-.38.56-.69.7-.25.1-.47-.1-.61-.29-.16-.24-.15-.55-.1-.83.17-.57.59-1.04,1.08-1.37.07.24.13.49.24.72.37.65.43,1.41.71,2.1.11.15.26.28.33.47.22.59.41,1.19.62,1.79.11.36.34.66.48,1,.38.88.75,1.77,1.13,2.64.09.22.26.39.37.6.34.68.58,1.42,1,2.06.33.6.62,1.23.95,1.83.23-.09.44-.2.65-.31-.11-.23-.23-.46-.33-.7.35-.2.71-.39,1.07-.55.18.32.36.65.56.97-.4.28-.94.41-1.22.83-.16.52.17,1.03.5,1.39.3.35.81.19,1.11-.07-.11-.23-.19-.48-.36-.66-.19.04-.37.1-.55.13-.01-.12-.03-.23-.03-.35.31-.17.61-.36.93-.5.21.17.29.56.62.5.35.02.46-.39.54-.65.08-.44.1-.91-.06-1.34-.31.03-.57.21-.85.34-.17-.31-.35-.63-.51-.95.5-.26,1.01-.52,1.51-.78-.09-.26-.2-.5-.34-.74-1.12.51-2.19,1.13-3.31,1.66-.21-.44-.52-.81-.69-1.26,1.12-.52,2.28-.95,3.39-1.49-.1-.26-.23-.5-.35-.75-1.13.48-2.24.99-3.38,1.45-.13-.4-.45-.7-.6-1.1-.25-.59-.51-1.18-.76-1.78.34-.13.69-.3,1.07-.3.09.13.18.27.25.42.06.37-.2.67-.37.99.21.22.43.43.66.64.52-.93,1.06-1.86,1.6-2.78.1-.19.25-.38.27-.6-.15-.2-.34-.38-.53-.54-.03.01-.08.04-.1.05-.31.56-.6,1.13-.88,1.7-.08-.34-.22-.77-.62-.83-.59-.06-1.1.33-1.65.47-.15-.32-.4-.59-.5-.94-.32-.92-.64-1.84-.95-2.76.21-.07.42-.13.64-.14.24.59.38,1.21.62,1.81.15.39.57.67.99.61.34.02.63-.23.83-.48.4-.51.7-1.09.85-1.72-.15-.1-.3-.2-.45-.3-.2.38-.33.79-.55,1.18ZM39.36,107.05c-.07-.4-.16-.8-.31-1.19.52-.15,1.05-.19,1.57-.32.31-.12.58.15.77.37.34.39.33,1,.02,1.4-.34-.33-.74-.69-1.25-.67-.33-.04-.57.22-.81.41Z"/>
  <path class="cls-1" d="M85.83,110.45c.04.23.1.46.13.7.45-.04.91-.03,1.36,0,.03-.23.07-.47.12-.7-.53-.03-1.08-.04-1.61,0Z"/>
  <path class="cls-1" d="M142.61,113.99c-.27.69-.62,1.34-.89,2.02-.17.41-.2.91.05,1.29.34.58,1.21.84,1.76.39.1.5.52.86,1.03.9.5.06.92-.32,1.13-.74.34-.68.62-1.38.94-2.05-.73-.38-1.49-.69-2.24-1.05-.59-.26-1.16-.59-1.78-.77ZM143.38,116.87c-.32.44-1.1,0-.96-.5.14-.45.37-.86.55-1.29.34.17.69.32,1.04.48-.18.44-.34.91-.63,1.31ZM145.52,116.26c-.11.46-.31.9-.58,1.29-.26.38-.85,0-.76-.39.13-.43.35-.83.52-1.25.29.1.56.22.83.35Z"/>
  <path class="cls-1" d="M100.55,142.15c-.41-.31-.97-.44-1.46-.24.13.26.2.57.42.78.28,0,.58-.03.84.09.61.25,1.05.77,1.48,1.25.16,0,.28-.2.15-.32-.41-.57-.87-1.13-1.44-1.56Z"/>
  <path class="cls-1" d="M109.79,38.71c-1.15-.29-2.3-.56-3.45-.84-.1.25-.17.51-.19.78.43.07.85.2,1.27.31-.29,1.16-.57,2.32-.84,3.49.29.08.59.15.89.21.28-1.16.58-2.31.83-3.48.44.06.86.18,1.28.3.08-.25.15-.51.21-.77Z"/>
  <path class="cls-1" d="M145.01,81.33c.26,1,.46,2.01.74,3.01.24-.06.49-.12.73-.18-.07-.73-.36-1.42-.42-2.14,1.14-.27,2.28-.55,3.41-.83-.04-.28-.11-.56-.15-.84-.54,0-1.06.21-1.58.32-.9.24-1.83.39-2.72.67Z"/>
  <path class="cls-1" d="M76.15,39.22c.31.96.65,1.91.94,2.87-.85-.76-1.69-1.53-2.54-2.28-.33-.01-.63.16-.95.22.39,1.42.93,2.8,1.36,4.21.27-.09.54-.18.81-.27-.27-1-.66-1.96-.96-2.95.9.76,1.75,1.58,2.65,2.34.31-.01.6-.17.91-.25-.48-1.39-.91-2.8-1.4-4.18-.27.1-.54.19-.8.28Z"/>
  <path class="cls-1" d="M145.29,68.99c-.48.25-.97.48-1.46.74-.26-.5-.51-1.01-.76-1.52.49-.25.98-.5,1.47-.73-.12-.29-.26-.57-.41-.84-1.3.64-2.61,1.28-3.9,1.94.1.28.23.55.36.82.62-.22,1.19-.56,1.79-.84.26.5.5,1.01.75,1.51-.57.31-1.17.57-1.74.88.12.28.25.56.4.83,1.3-.63,2.59-1.31,3.9-1.92-.09-.31-.24-.59-.4-.86Z"/>
  <path class="cls-1" d="M146.43,75.67c-.79.07-1.61.42-2.08,1.09-.73,1.13-.06,2.88,1.25,3.21.79.15,1.61-.11,2.26-.56.38-.25.64-.65.74-1.09.19-.86-.14-1.84-.87-2.35-.37-.28-.86-.33-1.31-.3ZM147.5,78.52c-.44.38-1.05.59-1.64.54-.78.01-1.28-1-.87-1.64.22-.36.62-.58,1.01-.72.44-.16.99-.21,1.39.08.56.37.63,1.3.11,1.75Z"/>
  <path class="cls-1" d="M104.08,106.32c-.39-.08-.78-.17-1.17-.22-.07.2-.11.41-.12.62.4.04.79.16,1.19.15.04-.18.07-.36.1-.54Z"/>
  <path class="cls-1" d="M81.52,109.58c.02.23.06.46.12.69.53-.13,1.08-.18,1.61-.29-.06-.21-.12-.42-.2-.62-.51.08-1.01.22-1.53.23Z"/>
  <path class="cls-1" d="M104.14,111.55c.66.06,1.3.2,1.95.3.07-.23.1-.48.11-.71-.63-.09-1.26-.2-1.89-.29-.08.23-.11.47-.17.71Z"/>
  <path class="cls-1" d="M119.79,139.95c-.54-.26-1.15-.31-1.73-.46-.94-.18-1.86-.42-2.79-.59-.57-.21-1.18-.25-1.77-.38-.85-.12-1.69-.33-2.55-.39-.16,0-.22-.16-.27-.28-.35-.91-.72-1.83-1.4-2.55-.28-.31-.74-.46-1.12-.23.09.29.18.59.24.89.3-.02.63.02.87.24.55.5.86,1.19,1.17,1.85-.9-.27-1.86-.25-2.77-.48-.33-.07-.67-.11-1.02-.11.1.29.22.57.33.85.34.02.69.07,1.03.14.32.14.4.51.34.83-.44.1-.89.15-1.33.22.07.3.13.6.15.91-.43.25-.9.48-1.41.47-.27-.01-.58-.09-.73-.35-.06-.25.2-.42.39-.5.43-.07.86.02,1.28.08-.11-.28-.07-.68-.33-.87-.22-.03-.43-.03-.65-.04-.02-.08-.03-.16-.05-.23.33,0,.71-.08.91-.37.28-.49-.17-1.06-.63-1.22-.68-.32-1.59.33-1.46,1.08.1.34.36.57.63.78-.32.13-.63.36-.71.73-.12.76.51,1.46,1.22,1.64.52.18,1.07-.01,1.56-.22.04-.24.09-.48.13-.73.19.41.44.81.83,1.05.47.28,1.04.16,1.54.03-.05.27-.1.53-.14.8.23.25.5.47.77.67.22-1.42.45-2.84.68-4.26.61.1,1.22.14,1.82.3.2.2.42.59.15.81-.39.13-.81.13-1.22.14.02.79.27,1.66.9,2.19.47.39,1.14.31,1.69.15-.08.28-.13.57-.14.87.23.24.47.47.71.69.26-1.42.56-2.84.83-4.26.48.08.95.23,1.43.3-.05.58-.22,1.14-.33,1.72-.14.15-.38.07-.56.1.13.55.5,1.01.77,1.49.09,0,.18,0,.28.01.08-.18.14-.37.19-.56.47.05.91.23,1.39.23-.09.43-.26.86-.29,1.3.19.27.44.5.68.74.34-1.4.7-2.8,1.03-4.2.32.06.64.15.96.21-.06-.26-.12-.53-.21-.78-.39-.25-.89-.23-1.31-.41ZM105.47,137.86c.24-.22.72-.02.69.31.05.29-.27.48-.53.41-.35-.02-.48-.56-.16-.72ZM109.85,140.61c-.53.29-1.16.45-1.75.31-.25-.07-.48-.42-.23-.63.25-.16.56-.1.84-.15.16-.06.36-.17.36-.36.06-.5-.22-.95-.54-1.3.54.07,1.08.22,1.62.3-.07.61-.18,1.23-.29,1.84ZM114.6,141.23c-.01.21-.24.28-.4.35-.42.18-.9.23-1.35.14-.23-.07-.37-.27-.46-.48.09-.1.17-.21.29-.28.34-.05.75.05,1.03-.22.14-.5-.03-1.02-.33-1.42.53-.02,1.02.19,1.53.31-.11.53-.22,1.06-.3,1.59ZM119,142.91c0-.18.02-.35.03-.53-.44-.07-.88-.16-1.3-.29.04-.61.22-1.19.33-1.79.52.02.97.3,1.47.41-.19.73-.38,1.46-.53,2.19Z"/>
  <path class="cls-1" d="M65.85,42.72c.26.07.49-.12.71-.23-.31-.1-.68-.15-.86-.45-.12-.16-.08-.38-.08-.56.22-.17.48-.29.75-.37-.08-.14-.15-.29-.23-.43-.53-.03-1.12.29-1.2.86-.01.55.4,1.03.91,1.18Z"/>
  <path class="cls-1" d="M96.54,108.31c.73-.35,1.53-.57,2.35-.53,0-.21,0-.42,0-.63-.97-.01-1.94.22-2.8.66.14.16.23.46.45.49Z"/>
  <path class="cls-1" d="M88.84,109.72c.44.16.89.33,1.31.56.16-.17.31-.34.45-.52-.47-.28-.97-.5-1.51-.59-.09.18-.17.37-.25.55Z"/>
  <path class="cls-1" d="M118.49,42.16c-.46.92-.85,1.87-1.3,2.79-.37.74-1.69.19-1.49-.58.34-1.01.91-1.92,1.24-2.92-.28-.12-.55-.24-.83-.35-.24.51-.47,1.02-.7,1.54-.25.59-.62,1.16-.7,1.81,0,.62.45,1.14.99,1.41.49.25,1.1.44,1.63.2.44-.18.71-.61.89-1.03.36-.83.77-1.63,1.1-2.46-.27-.14-.55-.27-.83-.4Z"/>
  <path class="cls-1" d="M121.51,48.86c.36.28.76.51,1.15.76.56.34,1.09.74,1.67,1.05.13-.22.27-.44.41-.66-.69-.42-1.35-.87-2.05-1.28.19-.29.35-.6.56-.87.06-.1.16,0,.24.03.43.28.86.55,1.29.83.11.05.2.18.33.15.16-.19.28-.41.41-.62-.6-.39-1.21-.76-1.79-1.16.16-.24.31-.49.47-.73.68.35,1.29.83,1.97,1.21.14-.21.27-.42.42-.62-.88-.63-1.8-1.19-2.72-1.76-.81,1.21-1.56,2.46-2.37,3.67Z"/>
  <path class="cls-1" d="M133.01,53.34c.56.46,1.01,1.04,1.6,1.47.17-.19.33-.38.49-.58-.74-.71-1.5-1.42-2.25-2.13-1.02,1.06-2.02,2.13-3.04,3.19.22.21.45.42.68.63.44-.43.83-.91,1.28-1.32.46.44.93.86,1.37,1.32.2-.18.39-.37.56-.56-.46-.44-.94-.87-1.38-1.33.22-.23.39-.55.69-.68Z"/>
  <path class="cls-1" d="M139.56,122.76c-.39-.25-.78-.5-1.17-.75-.15.26-.35.49-.45.78.45.47,1.22.59,1.51,1.21.44.8.9,1.59,1.33,2.38.21-.28.39-.57.58-.87-.37-.57-.75-1.14-1.1-1.72.7.03,1.39.2,2.09.2.17-.3.36-.59.54-.88-.65-.05-1.3-.1-1.95-.13-.45-.11-.98.08-1.38-.21Z"/>
  <path class="cls-1" d="M58.68,46.71c-.13-.16-.18-.42-.39-.5-.23.13-.43.3-.62.48.12.15.23.31.35.46.22-.15.44-.3.67-.45Z"/>
  <path class="cls-1" d="M131.06,52.58c.25-.45.43-.99.27-1.5-.26-1.15-1.59-2.01-2.74-1.58-.48.18-.86.55-1.18.93-.37.46-.65,1.06-.57,1.67.17,1.14,1.34,2.07,2.5,1.87.75-.17,1.33-.75,1.72-1.38ZM129.68,52.78c-.3.28-.74.39-1.14.3-.54-.17-.96-.78-.78-1.34.18-.63.67-1.18,1.26-1.43.68-.24,1.43.3,1.48,1-.02.59-.4,1.1-.83,1.48Z"/>
  <path class="cls-1" d="M85.68,103.38c-2.54.65-5.18.86-7.79.79-.55-.08-1.11-.07-1.67-.09-3.07,3.87-6.14,7.74-9.22,11.6.51.75,1.04,1.5,1.47,2.29.27.51.56,1.06.52,1.66.05.7-.54,1.2-.85,1.77,1.06,0,2.11.03,3.17-.04,5.89-.01,11.78-.03,17.68-.05.14-.02.25.07.35.15,1.07.85,2.4,1.45,3.78,1.39,1.48.08,3-.41,4.11-1.41.19-.19.48-.1.73-.12,6.95-.04,13.91.09,20.86,0-.33-.35-.7-.68-1.04-1.04-.34-.36-.52-.87-.52-1.37-.03-.92.34-1.79.7-2.61.09-.24.27-.45.3-.71-.08-.21-.21-.38-.32-.57-2.02-3.4-4.04-6.79-6.06-10.18-.08-.13-.16-.28-.28-.37-1.56.22-3.18.25-4.71-.17-1.78-.46-3.49-1.25-5.32-1.5-1.2-.05-2.41-.08-3.59.14-.92.13-1.81.41-2.68.73-.29-1.17-.44-2.36-.4-3.57-.08-2.16.48-4.29,1.31-6.27,1.13-.2,2.27-.51,3.26-1.11.64-.39,1.16-.94,1.48-1.62.19.56.72.87,1.22,1.11,1.06.48,2.21.7,3.35.87,1.82.26,3.71.1,5.42-.57,1.6-.7,3.01-1.83,4.15-3.15.5-.66,1.05-1.36,1.14-2.22-.9-.18-1.87-.08-2.71-.49-.57-.33-1.02-.81-1.46-1.3-.64-.77-1.03-1.7-1.65-2.48-.58-.74-1.34-1.3-2.15-1.78,2.18-.62,4.1-2.06,5.32-3.98.92-1.52,1.72-3.11,2.73-4.57.84-1.23,1.93-2.39,3.36-2.92-.12-.5-.51-.88-.96-1.09-.95-.57-2.1-.62-3.17-.58-.98.02-1.92.33-2.8.75.28-.9.61-1.78,1.09-2.59.37-.62.92-1.1,1.33-1.68.09-.3-.27-.47-.48-.61-.82-.39-1.77-.43-2.66-.35-1.05.18-2.1.43-3.05.91.12-.88.28-1.76.51-2.62.15-.61.42-1.18.57-1.78-.41-.32-.96-.34-1.45-.33-1.68-.05-3.29.67-4.62,1.65.04-1.75.47-3.48,1.02-5.13-1.38-.22-2.83-.18-4.13.38-1.3.53-2.36,1.48-3.35,2.45-.9-1.93-2.06-3.74-3.4-5.4-.04-.07-.17-.16-.23-.06-1.3,1.57-2.4,3.31-3.31,5.14-.37-.56-.82-1.08-1.33-1.51-1.03-.85-2.29-1.35-3.58-1.66-.73-.14-1.48-.16-2.23-.13.05.69.37,1.35.29,2.06-.13,1.34-.29,2.67-.53,3.99-.23-.31-.48-.61-.79-.84-1.23-.97-2.75-1.65-4.34-1.61-.51.01-1.03-.02-1.52.14-.09.05-.23.13-.19.25.29.81.61,1.6.84,2.43.18.89.39,1.8.38,2.72-.86-1.01-2.09-1.64-3.37-1.92-1.1-.18-2.32-.14-3.29.45-.15.07-.28.25-.16.4.52.62,1.14,1.17,1.55,1.88.4.71.7,1.47.97,2.24-1.28-.49-2.75-.6-4.05-.13-.88.35-1.62,1.08-1.94,1.98.15.24.46.33.69.49.49.29.92.66,1.3,1.08,1.14,1.34,1.73,3.01,2.43,4.6.54,1.13,1.07,2.32,2,3.19.89.94,2.08,1.58,3.34,1.87-.83.74-1.6,1.56-2.21,2.5-.44.6-.7,1.32-1.19,1.89-.44.59-1.09.95-1.74,1.26-.3.1-.27.46-.18.71.27.63.68,1.18,1.14,1.68.55.59,1.14,1.17,1.83,1.61,1.05.69,2.21,1.2,3.4,1.57.81.26,1.67.2,2.51.21,2.03,0,3.95-.73,5.81-1.44.41.3.72.72,1.11,1.04.83.74,1.86,1.22,2.91,1.57.44.14.87.31,1.33.34-.03.33-.17.63-.28.94-.69,1.89-.98,3.92-.92,5.93,0,.98.16,1.94.3,2.9-.52-.05-1.03-.18-1.56-.22-1.22-.04-2.46-.08-3.64.25ZM68.83,116.23c-.22.04-.28-.21-.4-.34,2.04.23,4.11,0,6.12-.32,2.93-.42,5.84-1.08,8.79-1.26.53,0,1.05-.11,1.58-.08,1.91.02,3.86.21,5.62,1.02.51.22.98.53,1.46.81-.12.09-.23.37-.41.24-1.4-.91-3.06-1.35-4.71-1.5-.62-.09-1.24-.06-1.87-.11-.67.07-1.35.02-2.02.12-.97.05-1.93.22-2.89.36-2.61.38-5.21.83-7.84,1.03-1.14.1-2.29.06-3.43.04ZM69.12,116.94c.91.03,1.83,0,2.74,0,1.97-.13,3.92-.41,5.87-.69,1.81-.27,3.62-.6,5.45-.77,1.06-.08,2.11-.05,3.17-.03,1.71.14,3.46.52,4.91,1.48-.03.07-.06.14-.09.21-1.45-.7-3.04-1.12-4.65-1.26-2.16-.2-4.32.02-6.46.32-3.33.45-6.65,1.22-10.03,1-.29.04-.58-.06-.87-.09-.01-.04-.04-.11-.05-.15ZM89.06,120.21c-1,0-2,0-2.99,0-1.08.08-2.17.03-3.25.05-4.27,0-8.54.02-12.81.02.04-.19.08-.38.11-.56,2.84.44,5.75.37,8.59-.11.81-.1,1.62-.25,2.44-.3,1.97-.18,3.97-.11,5.92.23.95.13,1.87.42,2.81.59,0,.11,0,.23,0,.35-.25-.13-.52-.29-.81-.28ZM90.05,119.44c-.55-.06-1.07-.26-1.61-.36-1.02-.19-2.04-.39-3.07-.48-1.05-.12-2.12-.08-3.17-.07-2.22.06-4.38.63-6.6.71-1.87.17-3.75.03-5.59-.27,0-.05-.01-.16-.01-.22,1.11.1,2.21.27,3.32.23,2.1.07,4.2-.22,6.25-.66,1.82-.37,3.68-.64,5.54-.46,1.7.17,3.37.57,4.99,1.11-.02.15-.03.3-.05.46ZM90.48,118.29c-.38-.04-.73-.19-1.09-.29-1.57-.44-3.18-.82-4.81-.89-.82,0-1.65-.05-2.47.08-1.05.08-2.08.3-3.11.52-1.78.35-3.59.6-5.42.56-.81.02-1.61-.04-2.41-.12-.53-.02-1.08-.06-1.59-.25,1.17-.02,2.34.08,3.5-.05.62-.04,1.23-.12,1.84-.16,1.82-.27,3.63-.56,5.45-.82,1.07-.13,2.15-.29,3.23-.3,1-.01,1.99-.03,2.99.03,1.42.16,2.85.5,4.13,1.14-.08.19-.17.37-.25.56ZM95.17,121.23c-.72.43-1.6.38-2.41.37-.55-.05-1.2-.13-1.54-.62-.32-.39-.13-.93-.02-1.36.41-1.25,1.24-2.33,2.13-3.27.74.77,1.39,1.63,1.85,2.59.24.52.5,1.07.45,1.66.02.29-.28.46-.47.63ZM94.58,93.99c-.73,1.89-1.14,3.9-1.16,5.93-.02,1.49.19,2.98.55,4.42-.14.07-.28.16-.43.21-.36-.21-.71-.44-1.08-.64-.47-1.96-.59-4-.34-6.01.21-1.38.58-2.72,1.14-4,.43.09.88.08,1.32.08ZM93.33,92.55c0-.83,0-1.65.02-2.48-.02-.25.15-.42.34-.54.28-.27.63.09.84.29.04.47-.05.93-.04,1.4,0,.49,0,.98-.01,1.47-.38-.05-.81.06-1.14-.14ZM96.21,118.39c.17-.22.43-.3.66-.44,1.68-.89,3.57-1.33,5.47-1.42,2.19-.09,4.38.27,6.54.63,2.45.39,4.94.88,7.43.58-.05.15-.07.37-.26.38-.85.19-1.74.16-2.6.05-1.81-.2-3.58-.62-5.39-.8-1.29-.13-2.57-.3-3.87-.28-.94.01-1.88-.04-2.81.11-1.66.17-3.28.63-4.8,1.3-.14.08-.32.06-.36-.12ZM96.65,119.24c1.83-.84,3.82-1.31,5.83-1.43,1.22-.03,2.43-.04,3.65.09.98.09,1.97.2,2.95.32,2.03.25,4.04.82,6.1.74.34,0,.67-.1,1.01-.12,0,.06-.02.18-.02.24-.19.09-.42.11-.63.14-.91.04-1.82.03-2.73,0-1.97-.19-3.92-.52-5.89-.63-.64-.09-1.29-.04-1.94-.12-2.01-.07-4.04.09-6.01.54-.78.15-1.53.4-2.29.59-.01-.12-.02-.24-.02-.36ZM101.37,120.26c-1.44-.01-2.88.02-4.33,0,.19-.07.38-.18.59-.17,1.96-.57,3.99-.91,6.02-.88,2.92-.05,5.82.31,8.7.71,1.02.06,2.05.05,3.08.03.28,0,.56-.05.84-.12.06.15.11.29.18.45-5.03.06-10.06-.02-15.08,0ZM106.89,116.12c-2.34-.36-4.77-.5-7.1.01-1.38.29-2.7.82-3.91,1.54-.08-.11-.15-.21-.22-.32,1.62-1.2,3.63-1.77,5.62-1.91,1.09-.02,2.18-.05,3.26.09,3.39.34,6.7,1.26,10.1,1.44.6.06,1.21.07,1.81-.05,0,.02,0,.05.01.07-3.22.43-6.4-.47-9.58-.88ZM116.67,116.23c-1.54.08-3.09.02-4.61-.24-2.04-.3-4.07-.72-6.12-1.01-2.08-.28-4.21-.41-6.29-.05-1.58.29-3.11.89-4.39,1.85-.18-.22-.35-.45-.54-.67,1.54-1.05,3.38-1.64,5.24-1.77,2-.15,4.02,0,6,.31,1.93.29,3.84.7,5.78.98,1.2.21,2.4.36,3.62.35.54.02,1.07-.03,1.61-.02-.09.08-.15.25-.28.26ZM100.49,103.83c.94-.03,1.88.18,2.77.46,1.7.51,3.36,1.2,5.14,1.38.88.03,1.76.04,2.64-.06.33.43.56.92.85,1.38,1.59,2.66,3.17,5.33,4.77,8-2.01.16-4.01-.13-5.99-.5-2.02-.33-4.02-.75-6.06-.99-1.81-.2-3.65-.27-5.46-.06-1.72.25-3.43.82-4.87,1.83-.13.12-.36.15-.44-.04-.01-.5,0-1.01.07-1.5.03-.53.02-1.06.05-1.58.1-.78.03-1.59.13-2.37.02-.59.03-1.18.09-1.76,0-.88.1-1.75.1-2.63,1.85-1.14,4.05-1.61,6.2-1.56ZM96.49,92.47c-.35.04-.69.13-1.05.13.03-.94-.03-1.89.05-2.83.33-.06.66-.08,1-.09,0,.93,0,1.87,0,2.8ZM97.46,92.19c-.01-.89,0-1.78,0-2.67.3-.01.6-.05.9-.12.02.83,0,1.66,0,2.48-.29.12-.59.22-.9.3ZM99.33,91.22c-.01-.67-.04-1.34,0-2,.25-.11.52-.2.77-.3,0,.5,0,1.01.04,1.51-.18.35-.53.55-.83.79ZM103.27,91.12c-.35-.15-.68-.35-.99-.57.01-.51,0-1.03.01-1.53.32.13.64.27.94.45.09.54.02,1.1.04,1.65ZM104.15,91.39c-.02-.51,0-1.02,0-1.52.32.1.64.22.97.29.01.5,0,1,0,1.49-.33-.05-.7-.05-.97-.27ZM106.94,91.96c-.31-.05-.63-.08-.95-.11,0-.47,0-.94,0-1.42.29.03.59.05.89.06.13.48.04.98.06,1.47ZM108.6,91.82c-.22.13-.53.09-.78.16-.01-.45,0-.89,0-1.34.26,0,.52,0,.79,0,0,.39.02.79,0,1.18ZM109.43,91.65c0-.36,0-.72-.01-1.07.23-.04.45-.08.68-.12,0,.34,0,.69,0,1.03-.22.06-.45.12-.68.17ZM110.99,91.07c0-.25-.01-.5-.01-.74.53-.09,1.04-.25,1.56-.4-.47.44-.98.83-1.55,1.14ZM108.8,82.91c1.09,1.19,1.85,2.64,2.92,3.86.56.57,1.27.99,1.97,1.38-.87.67-1.97.97-3.05,1.07-1.67.12-3.36.01-4.96-.5-.96-.3-1.91-.64-2.79-1.12-.42-.23-.53-.73-.59-1.17-.03-.95-.17-1.92-.55-2.8-.32-.87-.85-1.64-1.21-2.49,1.27.14,2.54.34,3.82.38.88.15,1.79-.03,2.65.26.7.15,1.32.59,1.79,1.12ZM113.9,69.98c.81-.42,1.75-.63,2.66-.51-.08.44-.43.74-.68,1.09-.44.53-.78,1.12-1.1,1.72-.45.79-.85,1.61-1.26,2.42-.76,1.38-1.59,2.76-2.79,3.8-.8.56-1.66,1.07-2.59,1.36-.39.21-.83.25-1.26.3-.5.04-1,.04-1.49-.04.14-.12.3-.22.47-.27.77-.39,1.43-.95,2.03-1.56.79-.78,1.47-1.66,2.11-2.55.7-.97,1.17-2.08,1.56-3.21.11-.33.2-.68.44-.95.53-.64,1.16-1.22,1.91-1.6ZM108.76,66.23c.2-.25.5-.37.77-.53,1.02-.55,2.18-.99,3.37-.81-.07.38-.31.69-.49,1.03-.33.6-.64,1.22-.84,1.87-.62,1.95-1.01,3.97-1.83,5.84-.42.93-1.03,1.76-1.63,2.59-.86,1.1-1.84,2.2-3.16,2.73-.61.22-1.23.4-1.88.44.77-.56,1.53-1.15,2.1-1.92.6-.8,1.13-1.66,1.57-2.56.39-.74.71-1.52.9-2.33.52-2.09.84-4.23,1.15-6.35ZM104.05,70.11c-.01-.44.1-.87.08-1.32,0-.59.03-1.18-.02-1.76-.09-.43-.05-.86-.08-1.29-.08-.71-.08-1.42-.08-2.14-.02-.29.31-.43.48-.62.93-.89,2.11-1.54,3.4-1.71.04.44.03.89-.06,1.32-.36,2.12-.49,4.27-.82,6.39-.27,1.81-.65,3.62-1.45,5.28-.66,1.42-1.58,2.79-2.93,3.64-.85.54-1.83,1.05-2.87.97.49-.44,1.05-.79,1.48-1.3.95-1.11,1.68-2.41,2.15-3.8.39-1.19.62-2.42.72-3.67ZM100.58,58.51c.69-.43,1.43-.87,2.27-.87-.31,1.14-.56,2.31-.57,3.51-.03,1.17-.02,2.34.02,3.52.11.64.04,1.29.15,1.93.05,1.26.06,2.52.01,3.78-.18,2.15-.72,4.39-2.14,6.08-.72.91-1.73,1.52-2.74,2.05-.27-.11-.53-.24-.79-.39.72-.72,1.18-1.64,1.59-2.56.91-2.11,1.35-4.4,1.28-6.69.07-2.51-.42-5-1.18-7.39-.07-.25-.22-.49-.24-.75.56-.93,1.45-1.61,2.33-2.23ZM90.71,62c.49-1.38,1.07-2.72,1.84-3.97.4-.64.85-1.27,1.43-1.78.97.93,1.69,2.07,2.23,3.29,1.1,2.51,1.85,5.19,1.99,7.94.1,1.17-.01,2.35-.13,3.51-.23,1.7-.67,3.37-1.37,4.95-.47,1.05-1.32,1.97-2.41,2.37-.22.09-.47.07-.68-.02-1.03-.38-1.88-1.16-2.44-2.1-1.04-1.83-1.54-3.92-1.71-6.01-.03-1.13-.06-2.27.1-3.39.21-1.63.58-3.24,1.15-4.78ZM84.34,64.14c.38-2.39.86-4.78.98-7.2,1.2.21,2.21.97,3.03,1.84.55.58.89,1.32,1.17,2.07.04.1.05.23,0,.33-1.05,2.88-1.71,5.95-1.57,9.03.09,2.79.99,5.65,2.91,7.73-.57-.06-1.11-.25-1.66-.41-1.14-.4-2.07-1.24-2.85-2.15-1.17-1.49-1.95-3.28-2.3-5.14-.29-2.03,0-4.08.3-6.09ZM80.07,60.82c1.16.52,2.07,1.48,2.72,2.55.13.17.04.39.02.59-.4,2.58-.68,5.26-.03,7.82.33,1.52,1.06,2.94,2.02,4.17.39.46.83.86,1.26,1.29.63.58,1.39,1,2.11,1.45.14-.06.21.11.3.17-.6.03-1.23.06-1.81-.14-1.33-.23-2.66-.76-3.66-1.7-1.2-1.08-2.14-2.45-2.82-3.91-.57-1.22-.79-2.55-1-3.87-.12-.98-.2-1.97-.23-2.96-.09-1.13,0-2.26-.1-3.39-.08-.76-.31-1.51-.31-2.27.49-.19,1.06-.03,1.52.2ZM72.97,63.92c1-.1,2.01.15,2.84.72.69.46,1.29,1.06,1.75,1.74.15.59.08,1.2.12,1.8.15,1.67.45,3.35,1.09,4.91.96,2.32,2.52,4.46,4.65,5.83.4.28.86.48,1.26.78-.96.08-1.9-.2-2.8-.49-1.18-.38-2.2-1.13-3.06-2.01-.78-.75-1.43-1.62-1.91-2.59-.88-1.95-1.44-4.02-2.04-6.07-.29-1.08-.57-2.17-1.13-3.15-.23-.5-.63-.93-.77-1.47ZM76.34,79.12c-1.16-.51-2.1-1.43-2.75-2.51-1.05-1.79-1.62-3.81-2.68-5.59-.43-.75-1.15-1.27-1.63-1.98.13-.11.25-.24.43-.27,1.18-.3,2.49-.13,3.5.58.34.26.75.52.88.95.35,1.19.66,2.41,1.11,3.57.3.8.61,1.61,1.09,2.33.95,1.41,2.2,2.63,3.67,3.47-1.22.08-2.49-.02-3.62-.54ZM75.56,89.47c-.43-.32-.84-.67-1.19-1.09.39.09.8.13,1.2.16,0,.31,0,.62-.02.93ZM77.3,90.33c-.29-.1-.58-.22-.85-.36,0-.47,0-.94,0-1.42.28.03.59-.06.85.05.02.57,0,1.15,0,1.73ZM79.01,90.67c-.27-.02-.54-.04-.82-.05-.03-.7,0-1.4,0-2.1.27-.05.55-.07.84-.07-.01.74,0,1.48,0,2.22ZM80.75,90.73c-.29.01-.58.02-.87.02,0-.8,0-1.6,0-2.4.29-.08.59-.12.88-.18,0,.85,0,1.7,0,2.55ZM82.42,90.43c-.27.05-.53.12-.79.16,0-.86,0-1.72,0-2.58.27-.05.53-.1.8-.13,0,.85,0,1.7,0,2.55ZM84.01,89.78c-.23.13-.47.22-.71.32,0-.71,0-1.42,0-2.13.02-.12-.05-.27.05-.36.24-.11.51-.17.76-.24,0,.7,0,1.4,0,2.1-.02.1.03.27-.1.32ZM84.98,89.19c0-.71-.01-1.43,0-2.14.22-.12.46-.21.69-.3,0,.64.08,1.28.06,1.92-.16.27-.5.35-.75.53ZM86.18,83.18c-.29.56-.56,1.15-1.02,1.6-1.04.82-2.22,1.49-3.5,1.87-.91.3-1.87.41-2.81.54-1.69.11-3.43.23-5.06-.29.79-.78,1.32-1.77,1.94-2.68.7-1.08,1.53-2.18,2.75-2.69.64-.22,1.3-.36,1.97-.41,1.22-.2,2.45-.15,3.68-.16,1.17-.01,2.34.02,3.51.03-.69.58-1.05,1.42-1.46,2.19ZM88.47,90.61c-.26-.23-.52-.46-.74-.72-.03-.31,0-.62,0-.94.24.16.5.28.77.4-.01.42,0,.84-.02,1.27ZM89.44,91.34c0-.62,0-1.24,0-1.86.29.08.58.13.88.14.01.73.01,1.47,0,2.2-.3-.16-.6-.31-.9-.48ZM87.23,85.65c-.21-.93.07-1.91.61-2.67.74-1.18,1.77-2.26,3.1-2.73.56-.23,1.16-.32,1.75-.4.66-.02,1.33-.13,1.99-.07,2.2.19,4.24,1.57,5.29,3.52.4.81.69,1.74.48,2.65-.15.72-.58,1.37-1.18,1.78-1.46,1.12-3.66,1.09-5.12-.02-.14-.13-.33-.05-.48.02-.83.41-1.75.7-2.68.73-1.69.08-3.42-1.12-3.76-2.81ZM91.31,92.21c0-.82,0-1.64-.01-2.45.38,0,.75.06,1.13.09.02.87-.03,1.73-.05,2.6-.36-.04-.72-.14-1.07-.24ZM93.08,105.54c-.02.64,0,1.29-.08,1.93-.04.53,0,1.07-.05,1.6-.08.52-.05,1.06-.09,1.58-.1.64-.03,1.29-.1,1.93-.06.44-.04.88-.06,1.32,0,.48-.1.95-.09,1.43-1.53-1.08-3.35-1.7-5.2-1.91-.88-.14-1.77-.09-2.66-.11-2.37-.02-4.7.38-7.03.77-1.82.29-3.63.63-5.46.82-1.11.14-2.23.13-3.34.09,2.4-3.05,4.84-6.09,7.26-9.14.18-.23.36-.48.58-.67.29-.03.58.03.87.05,2.24.07,4.49-.03,6.69-.45,1.02-.17,2-.53,3.04-.58.98-.03,1.97-.06,2.93.17,1.02.14,1.96.59,2.8,1.18Z"/>
  <path class="cls-1" d="M136.82,61.78c.29-.2.55-.52.9-.59.41.56.81,1.12,1.2,1.7.2-.15.41-.29.61-.45-.07-.22-.23-.39-.35-.58-.29-.38-.55-.79-.85-1.17.25-.17.48-.39.76-.51.46.62.9,1.25,1.34,1.88.21-.15.42-.31.62-.47-.59-.89-1.24-1.75-1.85-2.63-1.21.83-2.39,1.69-3.58,2.54.62.89,1.25,1.77,1.88,2.66.26.04.45-.28.68-.39-.37-.52-.74-1.05-1.11-1.57-.09-.13-.2-.27-.24-.43Z"/>
  <path class="cls-1" d="M84.43,106.8c-.07-.2-.13-.4-.18-.59-.38.08-.77.13-1.16.19.02.18.04.36.05.54.43.02.86-.06,1.28-.14Z"/>
  <path class="cls-1" d="M101.83,111.07c.5.06.99.19,1.49.26.07-.23.14-.46.21-.69-.53-.08-1.05-.24-1.59-.23-.04.22-.08.44-.11.66Z"/>
  <path class="cls-1" d="M83.47,110.75c-.05.23.07.46.12.68.5-.05.99-.21,1.5-.22-.02-.24-.06-.48-.11-.72-.51.03-1.02.11-1.51.25Z"/>
  <path class="cls-1" d="M43.14,64.73c-.18-.1-.33-.33-.56-.29-.16.2-.28.42-.4.64.17.11.34.22.52.32.14-.23.29-.45.44-.67Z"/>
  <path class="cls-1" d="M88.21,107.89c.46.07.92.09,1.36.23.37.09.7.28,1.06.41.18-.13.29-.33.42-.51-.88-.43-1.84-.73-2.82-.68,0,.19-.02.37-.02.55Z"/>
  <path class="cls-1" d="M83.8,109.23c.07.2.14.41.21.62.48-.07.94-.2,1.41-.23-.03-.21-.07-.41-.11-.62-.52,0-1.01.15-1.51.23Z"/>
  <path class="cls-1" d="M144.31,109.16c-.09.26-.18.53-.26.79,1.12.36,2.23.76,3.35,1.11-1.2-.05-2.39-.24-3.58-.38-.11.28-.22.57-.3.86,1.04.68,2.12,1.28,3.16,1.95-1.14-.39-2.27-.77-3.41-1.16-.12.26-.22.54-.28.82,1.38.47,2.76.93,4.14,1.4.14-.43.31-.86.41-1.3-.39-.22-.77-.45-1.15-.69-.53-.35-1.11-.62-1.59-1.03,1.11-.06,2.19.22,3.3.21.1-.41.25-.83.4-1.22-.74-.29-1.49-.52-2.24-.77-.65-.2-1.27-.48-1.94-.61Z"/>
  <path class="cls-1" d="M106.74,110.33c.48.05.96.15,1.45.12-.04-.19.08-.48-.08-.62-.56-.07-1.11-.11-1.66-.21-.03.2-.07.39-.1.58.09.1.25.09.39.12Z"/>
  <path class="cls-1" d="M80.69,111.16c.03.24.05.47.08.71.66-.04,1.31-.14,1.95-.28-.05-.22-.11-.43-.15-.66-.63.04-1.25.2-1.88.22Z"/>
  <path class="cls-1" d="M109.74,112.27c.65.18,1.32.21,1.98.21,0-.24,0-.47,0-.71-.62.01-1.23-.07-1.84-.2-.04.23-.1.47-.15.7Z"/>
  <path class="cls-1" d="M80.76,142.52c-.42-.16-.89-.11-1.29.08.14.23.29.46.47.66.3.02.61-.07.92-.01.63.1,1.13.52,1.63.88.21.12.31-.21.14-.31-.58-.5-1.15-1.04-1.88-1.3Z"/>
  <path class="cls-1" d="M34.66,97.27c.12.2.23.4.33.6.62-.51,1.17-1.1,1.75-1.64.18-.12.12-.35.12-.53-.75.5-1.47,1.04-2.2,1.57Z"/>
  <path class="cls-1" d="M35.87,99.13c.22-.41.4-.84.61-1.25.17-.37.4-.74.38-1.17-.55.55-1.03,1.18-1.51,1.79.18.2.36.4.53.62Z"/>
  <path class="cls-1" d="M99.64,106.13c0-.2.02-.41.02-.61-.45-.02-.9-.04-1.35-.02.05.19,0,.46.16.6.39.01.78,0,1.17.03Z"/>
  <path class="cls-1" d="M87.59,106.2c.39.01.78.01,1.17.04.03-.18.07-.37.1-.55-.45-.1-.9-.11-1.35-.08.03.19-.06.45.08.59Z"/>
  <path class="cls-1" d="M97.67,106.19c-.04-.18-.08-.36-.13-.54-.64.03-1.22.33-1.78.6.13.17.26.34.39.51.48-.27.99-.45,1.51-.58Z"/>
  <path class="cls-1" d="M80.83,108.69c.57.01,1.14-.1,1.71-.12,0-.21-.02-.41-.03-.61-.56,0-1.12.14-1.68.12,0,.2,0,.41.01.61Z"/>
  <path class="cls-1" d="M86.76,106.32c-.04-.19-.08-.38-.12-.57-.55.07-1.08.19-1.62.32.04.21.1.41.16.61.52-.15,1.06-.24,1.59-.35Z"/>
  <path class="cls-1" d="M103.22,109.12c-.5-.11-1-.25-1.51-.29-.04.21-.09.41-.13.62.47.08.95.17,1.41.3.08-.21.16-.42.23-.63Z"/>
  <path class="cls-1" d="M91.39,106.47c-.55-.29-1.12-.59-1.75-.65-.05.19-.1.36-.14.55.52.12,1,.36,1.48.56.19-.1.27-.31.4-.47Z"/>
  <path class="cls-1" d="M106.44,106.59c-.5.03-.98-.14-1.48-.14-.01.19-.03.37-.05.56.5.1,1.01.18,1.52.2,0-.21,0-.41,0-.62Z"/>
  <path class="cls-1" d="M82.21,106.55c-.51,0-1.03.03-1.55.03,0,.2,0,.4,0,.6.53.01,1.06-.02,1.59-.09-.02-.18-.03-.36-.04-.54Z"/>
  <path class="cls-1" d="M79.61,106.57c-.35-.01-.7-.02-1.05-.03,0,.19-.02.37-.03.56.36.05.72.07,1.08.07,0-.2,0-.4,0-.6Z"/>
  <path class="cls-1" d="M99.47,110.34c.05.21.1.43.12.64.47,0,.93-.03,1.41-.02.03-.23.06-.47.07-.71-.53,0-1.07-.06-1.59.08Z"/>
  <path class="cls-1" d="M108.63,106.81c-.36.01-.73,0-1.08-.09-.09.19-.16.4-.19.61.43.04.86.1,1.29.09,0-.2-.01-.41-.02-.61Z"/>
  <path class="cls-1" d="M101.43,107.36c-.52-.12-1.04-.22-1.57-.21,0,.18-.01.37-.03.55.48.09.97.15,1.46.19.04-.18.09-.36.14-.54Z"/>
  <path class="cls-1" d="M87.28,107.88c0-.2-.02-.41-.02-.61-.52.04-1.03.12-1.53.19.04.21.09.41.14.62.47-.08.94-.17,1.41-.19Z"/>
  <path class="cls-1" d="M103.67,108.35c.02-.2.12-.4.09-.61-.5-.08-.98-.22-1.49-.24-.06.18-.11.36-.17.54.52.11,1.04.25,1.57.3Z"/>
  <path class="cls-1" d="M85,108.17c-.03-.2-.08-.39-.13-.57-.51.01-1,.2-1.52.22.02.21.07.42.12.62.51-.06,1.02-.15,1.52-.26Z"/>
  <path class="cls-1" d="M88.28,111.31c.51.11.98.34,1.45.55.17-.17.32-.35.48-.53-.52-.38-1.15-.64-1.8-.68-.05.22-.1.43-.13.66Z"/>
  <path class="cls-1" d="M106.35,108.07c-.56-.09-1.12-.15-1.69-.21-.04.21-.08.41-.11.62.59.06,1.17.15,1.76.12.01-.18.02-.36.03-.54Z"/>
  <path class="cls-1" d="M79.8,108.14c-.81,0-1.62.04-2.43-.05-.18.16-.11.44-.13.66.85.02,1.71.04,2.56.03,0-.21,0-.42,0-.63Z"/>
  <path class="cls-1" d="M107.47,108.82c.74.03,1.47.2,2.22.2,0-.23-.01-.45-.05-.67-.75.05-1.49-.1-2.24-.15,0,.2-.23.56.07.62Z"/>
  <path class="cls-1" d="M106.92,111.92c.65.1,1.31.2,1.98.2,0-.24,0-.48,0-.71-.62.02-1.23-.1-1.84-.19-.05.23-.1.46-.14.7Z"/>
  <path class="cls-1" d="M100.82,108.75c-.63-.12-1.28-.09-1.91.02.04.2.09.41.14.61.55-.04,1.11-.04,1.67,0,.04-.21.07-.42.1-.62Z"/>
  <path class="cls-1" d="M86.22,108.87c0,.22-.03.49.13.66.54,0,1.09,0,1.63.04.05-.21.09-.42.12-.63-.62-.13-1.25-.09-1.87-.07Z"/>
  <path class="cls-1" d="M98.18,109.53c-.09-.21-.18-.42-.28-.61-.5.16-1,.34-1.47.58.12.18.23.37.4.52.46-.12.89-.37,1.35-.48Z"/>
  <path class="cls-1" d="M105.48,109.49c-.52-.02-1.01-.2-1.52-.23-.07.21-.13.41-.19.61.55.09,1.1.25,1.66.24.01-.21.03-.41.05-.62Z"/>
  <path class="cls-1" d="M109.02,110.42c.7.28,1.47.21,2.17,0-.1-.2-.2-.41-.3-.61-.28.06-.54.15-.82.18-.27-.02-.53-.1-.79-.17-.08.2-.17.4-.25.61Z"/>
  <path class="cls-1" d="M75.99,109.8c0,.21-.02.42-.02.63.63.01,1.25.11,1.89.08,0-.23,0-.46,0-.68-.62,0-1.24-.01-1.86-.03Z"/>
  <path class="cls-1" d="M77.93,111.41c0,.23.01.46.03.7.67.02,1.34-.1,2.01-.12-.03-.23-.07-.47-.1-.7-.65,0-1.29.14-1.94.12Z"/>
  <path class="cls-1" d="M78.81,109.84c0,.23,0,.47.09.7.58-.09,1.17-.11,1.76-.2-.05-.2-.09-.41-.08-.62-.59,0-1.17.14-1.76.12Z"/>
  <path class="cls-1" d="M96.69,111.15c.18.17.32.4.54.52.44-.22.89-.46,1.39-.47-.01-.24-.04-.47-.09-.7-.67,0-1.3.29-1.84.66Z"/>
  <path class="cls-1" d="M119.07,145.1c-.29-.21-.66-.22-1-.2.06.28.1.57.23.83.23.06.47.06.69.18.63.32,1.05.94,1.36,1.56.09-.01.18-.03.26-.03,0-.33-.2-.6-.35-.88-.31-.54-.67-1.1-1.19-1.45Z"/>
  <path class="cls-1" d="M186.92,59.03c-.41,0-.75.34-.75.75v64.3c0,.41.34.75.75.75s.75-.34.75-.75V59.78c0-.41-.34-.75-.75-.75Z"/>
  <path class="cls-1" d="M231.43,73.32c-.75,5.78,2.49,10.97,7.23,11.58,4.74.61,9.19-3.58,9.93-9.37.75-5.78-2.49-10.97-7.23-11.58-4.74-.61-9.19,3.58-9.93,9.37Z"/>
  <path class="cls-1" d="M228.26,57.99c.56.86,1.26,1.66,2.13,2.21.67.43,1.47.64,2.27.67.07,0,.13,0,.2,0,2.07-.01,3.77-1.31,4.66-3.15.7-1.45.94-3.07,1.21-4.66,1.14-6.49,3.18-13.99,6.16-18.99.28.12.59.2.92.2,1.25,0,2.27-1.02,2.27-2.27s-1.02-2.27-2.27-2.27-2.27,1.02-2.27,2.27c0,.45.14.87.36,1.23-1.28,1.29-3.12,4.25-4.81,8.42-1.32,3.26-2.02,5.25-3.43,9.55-.46,1.41-1.8,3.97-3.73,2.96-.95-.5-1.61-1.61-1.92-2.6-.83-2.62-.57-5.49.23-8.12.45-1.48,1.57-4.08,2.71-5.85.93-1.45,1.85-2.57.72-1.64-2.08,1.64-7.4,9.28-7.33,15.07.03,2.2.48,4.46,1.57,6.39.11.2.24.4.36.6Z"/>
  <path class="cls-1" d="M247.22,48.34c-1.67,2.27-3.28,5.14-2.81,8.05.5,3.12,3.54,4.67,6.75,4.42,1.58-.12,5-1.77,6.43-2.4,5.56-2.44,8.23-3.87,13.79-6.33,8.44-3.74,17.14-6.97,26.1-9.17.34,2.35,2.35,4.16,4.79,4.16,2.69,0,4.87-2.18,4.87-4.87s-2.18-4.87-4.87-4.87-4.7,2.04-4.84,4.6c-.8.07-1.51.14-1.89.17-2.07.18-4.14.47-6.18.85-9.19,1.69-18.12,4.55-26.94,7.6-1.83.63-3.65,1.4-5.51,1.94-1.56.46-3.45.65-4.47-.9-.78-1.18-.58-2.83-.01-4.05,1.88-4.03,5.19-7.24,8.76-9.89,2.54-1.89,5.24-3.54,7.89-5.28.61.75,1.53,1.23,2.58,1.23,1.85,0,3.35-1.5,3.35-3.35s-1.5-3.35-3.35-3.35-3.35,1.5-3.35,3.35c0,.4.08.78.21,1.14-7.95,4.58-15.89,9.58-21.31,16.95Z"/>
  <path class="cls-1" d="M228.33,85.9c.48-2.1-.04-4.21-1.8-5.52-2.1-1.57-5.11-1.12-7.32-.03-5.49,2.72-9.31,8.32-11.26,13.98-.29.85-.58,1.78-.61,2.69-.02.46.23,1.43.62.46.93-2.34,1.97-4.42,3.43-6.49,1.22-1.73,2.69-3.36,4.52-4.46,1.67-1,4.47-1.01,4.68,1.16.24,2.48-1.27,4.83-2.63,8.33-1.68,4.3-2.82,8.19-3.37,12.52-1.35.21-2.39,1.37-2.39,2.78,0,1.56,1.26,2.82,2.82,2.82s2.82-1.26,2.82-2.82c0-1.04-.57-1.94-1.4-2.43,1.45-8.15,5.83-13.53,9.81-18.71.96-1.24,1.73-2.75,2.08-4.28Z"/>
  <path class="cls-1" d="M210.18,74.17c1.9.65,6.17,1.09,7.83.98,2.43-.16,5.14-.62,7.02-2.29,2.55-2.25,2.3-6.32.5-8.95-1.73-2.53-4.71-3.96-7.54-4.9-4.26-1.41-4.28-.04-3.06.9,1.81,1.4,3.85,2.88,4.92,4.97.5.99.73,2.16.42,3.22-.72,2.45-3.71,3.66-5.9,4.37-1.66.53-3.77.42-4.39.66-.66.25-.43.83.21,1.04Z"/>
  <path class="cls-1" d="M282.52,28.1c1.24,0,2.25-1.01,2.25-2.25s-1.01-2.25-2.25-2.25-2.25,1.01-2.25,2.25,1.01,2.25,2.25,2.25Z"/>
  <path class="cls-1" d="M317.54,44.89c1.83,0,3.32-1.49,3.32-3.32s-1.49-3.32-3.32-3.32-3.32,1.49-3.32,3.32,1.49,3.32,3.32,3.32Z"/>
  <path class="cls-1" d="M320.95,59.79c-2.17,0-3.93,1.76-3.93,3.93s1.76,3.93,3.93,3.93,3.93-1.76,3.93-3.93-1.76-3.93-3.93-3.93Z"/>
  <circle class="cls-1" cx="335.44" cy="67.23" r="2.55"/>
  <path class="cls-1" d="M330,42.46c-.98,0-1.77.79-1.77,1.77s.79,1.77,1.77,1.77,1.77-.79,1.77-1.77-.79-1.77-1.77-1.77Z"/>
  <path class="cls-1" d="M294.25,25.85c.88,0,1.59-.71,1.59-1.59s-.71-1.59-1.59-1.59-1.59.71-1.59,1.59.71,1.59,1.59,1.59Z"/>
  <path class="cls-1" d="M252.47,27.94c.8,0,1.44-.65,1.44-1.44s-.65-1.44-1.44-1.44-1.44.65-1.44,1.44.65,1.44,1.44,1.44Z"/>
  <path class="cls-1" d="M339.08,121.44c-.92,0-1.66.74-1.66,1.66s.74,1.66,1.66,1.66,1.66-.74,1.66-1.66-.74-1.66-1.66-1.66Z"/>
  <path class="cls-1" d="M319.29,145.87c-.83,0-1.5.67-1.5,1.5s.67,1.5,1.5,1.5,1.5-.67,1.5-1.5-.67-1.5-1.5-1.5Z"/>
  <path class="cls-1" d="M290.81,159.72c-.77,0-1.4.63-1.4,1.4s.63,1.4,1.4,1.4,1.4-.63,1.4-1.4-.63-1.4-1.4-1.4Z"/>
  <path class="cls-1" d="M314.78,84.55c0-3.13-2.54-5.66-5.66-5.66-2.13,0-3.99,1.18-4.96,2.92-.78-.21-1.38-.35-1.6-.42-8.67-2.42-17.54-3.8-26.35-5.58-1.78-.36-3.55-.77-5.26-1.4-1.03-.38-2.03-.9-2.76-1.72-.73-.82-1.14-1.97-.88-3.03.72-2.92,5.31-3.7,7.75-4.34,6.76-1.79,13.78-2.78,20.72-3.69.3,2.49,2.4,4.43,4.98,4.43,2.78,0,5.04-2.26,5.04-5.04s-2.26-5.04-5.04-5.04c-2.29,0-4.2,1.54-4.82,3.63-8.16.07-16.24.98-24.65,2.51-4.92.9-12.34,2.41-14.91,5.9-1.15,1.57-1.72,3.67-1.05,5.5.89,2.47,3.53,3.76,5.88,4.48,1.45.44,2.94.73,4.44.95,7.7,1.09,15.5,1.41,23.18,2.73,7.61,1.31,11.53,1.95,14.64,2.52,0,.11-.02.23-.02.35,0,3.13,2.54,5.66,5.66,5.66s5.66-2.54,5.66-5.66Z"/>
  <path class="cls-1" d="M330.74,90.45c0-1.9-1.54-3.45-3.45-3.45s-3.45,1.54-3.45,3.45,1.54,3.45,3.45,3.45,3.45-1.54,3.45-3.45Z"/>
  <path class="cls-1" d="M340.34,95.64c0-1.3-1.05-2.35-2.35-2.35s-2.35,1.05-2.35,2.35,1.05,2.35,2.35,2.35,2.35-1.05,2.35-2.35Z"/>
  <path class="cls-1" d="M346.23,99.3c-.84,0-1.52.68-1.52,1.52s.68,1.52,1.52,1.52,1.52-.68,1.52-1.52-.68-1.52-1.52-1.52Z"/>
  <path class="cls-1" d="M346.78,72.84c0-.84-.68-1.52-1.52-1.52s-1.52.68-1.52,1.52.68,1.52,1.52,1.52,1.52-.68,1.52-1.52Z"/>
  <circle class="cls-1" cx="300.41" cy="104.42" r="4.69"/>
  <path class="cls-1" d="M319.95,112.47c0-2.2-1.78-3.98-3.98-3.98s-3.98,1.78-3.98,3.98,1.78,3.98,3.98,3.98,3.98-1.78,3.98-3.98Z"/>
  <path class="cls-1" d="M329.05,116.24c-1.44,0-2.6,1.16-2.6,2.6s1.16,2.6,2.6,2.6,2.6-1.16,2.6-2.6-1.16-2.6-2.6-2.6Z"/>
  <path class="cls-1" d="M285,122.62c-1.7,0-3.23.74-4.29,1.91-3.12-2.63-4.84-4.95-7.85-8.14-5.05-5.37-9.53-10.37-12.65-17.03-.89-1.89-2.56-6.54.52-7.7,1.78-.68,3.98.08,5.75.49,2.87.67,6.55,2.13,9.74,3.67.09,2.79,2.36,5.03,5.17,5.03s5.19-2.32,5.19-5.19-2.32-5.19-5.19-5.19c-1.86,0-3.48.99-4.4,2.46-2.39-1.52-4.91-2.82-7.47-4.09-3.71-1.85-7.53-3.58-11.58-4.54-.94-.22-3.81-.91-6.07,1.21-1.27,1.19-1.75,2.96-1.43,5.25.24,1.66.88,3.6,1.98,5.94,6.19,13.2,17.82,22.72,27.28,29.37-.33.73-.51,1.53-.51,2.38,0,3.21,2.6,5.81,5.81,5.81s5.81-2.6,5.81-5.81-2.6-5.81-5.81-5.81Z"/>
  <path class="cls-1" d="M257.95,128.43c-.7,0-1.37.15-1.98.41-3.07-6.52-5.88-13.15-7.85-20.1-1.16-4.1-1.98-8.31-3.67-12.24-1.2-2.79-3.56-6.7-7.17-5.64-1.31.38-2.46,1.35-3.29,2.42-3.26,4.23-4,10.29-4.08,15.46-.04,2.84.07,5.7.49,8.51-1.8.41-3.15,2.01-3.15,3.94,0,2.24,1.81,4.05,4.05,4.05s4.05-1.81,4.05-4.05c0-1.78-1.16-3.28-2.76-3.82-.08-3.48-.05-6.93.39-10.39.28-2.24.84-6.05,3.47-6.75.36-.1.74-.11,1.11-.04,2.41.47,3.6,3.87,4.46,5.86,1.98,4.6,3.86,9.15,6.26,13.56,1.92,3.52,3.98,6.97,6.05,10.4-.83.89-1.35,2.08-1.35,3.39,0,2.75,2.23,4.97,4.97,4.97s4.97-2.23,4.97-4.97-2.23-4.97-4.97-4.97Z"/>
  <path class="cls-1" d="M298.07,133.75c-2.2,0-3.98,1.78-3.98,3.98s1.78,3.98,3.98,3.98,3.98-1.78,3.98-3.98-1.78-3.98-3.98-3.98Z"/>
  <path class="cls-1" d="M268.53,143.67c-2.2,0-3.98,1.78-3.98,3.98s1.78,3.98,3.98,3.98,3.98-1.78,3.98-3.98-1.78-3.98-3.98-3.98Z"/>
  <path class="cls-1" d="M309.54,140.73c-1.47,0-2.66,1.19-2.66,2.66s1.19,2.66,2.66,2.66,2.66-1.19,2.66-2.66-1.19-2.66-2.66-2.66Z"/>
  <path class="cls-1" d="M248.83,152.48c-.83,0-1.51.68-1.51,1.51s.68,1.51,1.51,1.51,1.51-.68,1.51-1.51-.68-1.51-1.51-1.51Z"/>
  <path class="cls-1" d="M279.55,153.99c-1.26,0-2.29,1.02-2.29,2.29s1.02,2.29,2.29,2.29,2.29-1.02,2.29-2.29-1.02-2.29-2.29-2.29Z"/>
  <path class="cls-1" d="M216.43,119.79c-.78,0-1.41.63-1.41,1.41s.63,1.41,1.41,1.41,1.41-.63,1.41-1.41-.63-1.41-1.41-1.41Z"/>
  <path class="cls-1" d="M234.75,132.57c-1.82.1-3.22,1.66-3.12,3.48.1,1.82,1.66,3.22,3.48,3.12,1.82-.1,3.22-1.66,3.12-3.48-.1-1.82-1.66-3.22-3.48-3.12Z"/>
  <circle class="cls-1" cx="240.63" cy="146.72" r="2.39"/>
</svg>